<?xml version="1.0" encoding="UTF-8" standalone="no"?>
<!-- Generator: Adobe Illustrator 15.1.0, SVG Export Plug-In  -->

<svg
   xmlns:dc="http://purl.org/dc/elements/1.1/"
   xmlns:cc="http://creativecommons.org/ns#"
   xmlns:rdf="http://www.w3.org/1999/02/22-rdf-syntax-ns#"
   xmlns:svg="http://www.w3.org/2000/svg"
   xmlns="http://www.w3.org/2000/svg"
   xmlns:sodipodi="http://sodipodi.sourceforge.net/DTD/sodipodi-0.dtd"
   xmlns:inkscape="http://www.inkscape.org/namespaces/inkscape"
   version="1.1"
   x="0px"
   y="0px"
   width="1530"
   height="990"
   viewBox="-142.884 -121.767 1530 990"
   overflow="visible"
   enable-background="new -142.884 -121.767 792 612"
   xml:space="preserve"
   id="svg2"
   inkscape:version="0.48.3.1 r9886"
   sodipodi:docname="HackerlingBoxAcrylic.svg"
   style="overflow:visible"><metadata
   id="metadata612"><rdf:RDF><cc:Work
       rdf:about=""><dc:format>image/svg+xml</dc:format><dc:type
         rdf:resource="http://purl.org/dc/dcmitype/StillImage" /><dc:title></dc:title></cc:Work></rdf:RDF></metadata><sodipodi:namedview
   pagecolor="#ffffff"
   bordercolor="#666666"
   borderopacity="1"
   objecttolerance="10"
   gridtolerance="10"
   guidetolerance="10"
   inkscape:pageopacity="0"
   inkscape:pageshadow="2"
   inkscape:window-width="1024"
   inkscape:window-height="717"
   id="namedview610"
   showgrid="false"
   units="in"
   inkscape:document-units="mm"
   inkscape:zoom="0.95237167"
   inkscape:cx="1206.6466"
   inkscape:cy="555.26311"
   inkscape:window-x="0"
   inkscape:window-y="26"
   inkscape:window-maximized="1"
   inkscape:current-layer="svg2" />
<defs
   id="defs4">
</defs>
<path
   d="m 783.96807,260.8198 c 0,1.91707 1.55325,3.47278 3.47156,3.47278 l 6.77164,0 0,46.79058 -6.77164,0 c -1.91831,0 -3.47156,1.55571 -3.47156,3.47279 l 0,11.28564 10.41714,0 c 11.68743,0 21.08785,1.84603 26.82071,4.0522 5.61036,2.1584 14.38114,3.76066 25.265,3.76066 1.19924,0 2.16943,0.9714 2.16943,2.16942 l 0,0 c 0,1.19925 -0.9714,2.16942 -2.16943,2.16942 -11.68744,0 -21.0903,-1.8448 -26.82193,-4.05097 -5.61037,-2.1584 -14.38115,-3.76188 -25.26255,-3.76188 l -10.41714,0.001 c -3.59652,0 -6.51194,2.91421 -6.51194,6.50949 0,3.59528 2.91665,6.50949 6.51194,6.50949 l 0,-3.9934 10.41714,0 0,4.86435 c 0,1.91708 1.55325,3.47157 3.47156,3.47157 l 1.737,0 c 0.44222,0 0.88811,-0.17028 1.22742,-0.50837 0.67741,-0.67863 1.77498,-0.67863 2.45484,0 0.67741,0.67864 1.77744,0.67864 2.45485,-10e-4 0.67741,-0.67741 1.77742,-0.67741 2.45483,10e-4 0.67741,0.67864 1.77744,0.67864 2.45484,-10e-4 0.67986,-0.67741 1.77743,-0.67741 2.45484,10e-4 0.67986,0.67864 1.77743,0.67864 2.45729,-10e-4 0.67741,-0.67741 1.77499,-0.67741 2.45484,10e-4 0.33687,0.33809 0.78276,0.50837 1.22742,0.50837 l 254.82553,0 c 0.4447,0 0.8906,-0.17028 1.2274,-0.50837 0.6799,-0.67863 1.7775,-0.67863 2.4549,-10e-4 0.6798,0.67986 1.7774,0.67986 2.4573,10e-4 0.6774,-0.67863 1.775,-0.67863 2.4536,-10e-4 0.6774,0.67986 1.7774,0.67986 2.4548,10e-4 0.6787,-0.67863 1.7787,-0.67863 2.4561,-10e-4 0.6774,0.67986 1.7774,0.67986 2.4548,10e-4 0.6799,-0.67863 1.7775,-0.67863 2.4549,0 0.3393,0.33809 0.7852,0.50837 1.2274,0.50837 l 1.737,0 c 1.9183,0 3.4716,-1.55449 3.4716,-3.47157 l 0,-4.86191 10.9377,0 0,3.9934 c 3.5965,0 6.5095,-2.91419 6.5095,-6.50948 0,-3.59529 -2.9142,-6.50949 -6.5095,-6.50949 l -10.9377,0 c -10.8815,0 -19.6522,1.60471 -25.2638,3.76188 -5.7329,2.20617 -15.1333,4.05097 -26.8207,4.05097 -1.1993,0 -2.1695,-0.9714 -2.1695,-2.16941 l 0,0 c 0,-1.19925 0.9714,-2.16942 2.1695,-2.16942 10.8814,0 19.6522,-1.6035 25.2625,-3.76067 5.7329,-2.20616 15.1399,-4.44475 26.8207,-4.05219 l 10.9378,0 0,-11.28565 c 0,-1.91708 -1.5557,-3.56935 -3.4716,-3.47279 l -7.2934,0 0,-46.79057 7.2934,0 c 1.9183,0 3.4716,-1.55572 3.4716,-3.47279 l 0,-15.62571 c 3.5965,0 6.5095,-2.91543 6.5095,-6.51071 0,-3.59529 -2.9142,-6.5095 -6.5095,-6.5095 l 0,3.9934 -10.939,0 0,-4.8619 c 0,-1.91585 -1.5533,-3.47156 -3.4716,-3.47156 l -297.58063,0 c -1.9183,0 -3.47156,1.55571 -3.47156,3.47156 l 0,4.8619 -10.41714,0 0,-3.9934 c -3.59652,0 -6.51194,2.91421 -6.51194,6.5095 0,3.59528 2.91665,6.51071 6.51194,6.51071 l 0,15.62326 z"
   id="path6"
   inkscape:connector-curvature="0"
   style="fill:none;stroke:#000000;stroke-width:0.99999994"
   sodipodi:nodetypes="csccsscscsccscccscccsssccccccccssccccccccssscccssscsccscscssccsscscccsssscccsccc" />
<path
   transform="scale(1,-1)"
   style="fill:none;stroke:#000000;stroke-width:0.99999994"
   d="m 864.69855,-246.93094 41.66857,0 0,10.76381 -41.66857,0 z"
   id="rect8" />
<path
   transform="scale(1,-1)"
   style="fill:none;stroke:#000000;stroke-width:0.99999994"
   d="m 987.96729,-246.93094 41.66861,0 0,10.76381 -41.66861,0 z"
   id="rect10" />
<path
   transform="scale(1,-1)"
   style="fill:none;stroke:#000000;stroke-width:0.99999994"
   d="m 864.69855,-339.57608 41.66857,0 0,10.76381 -41.66857,0 z"
   id="rect12" />
<path
   transform="scale(1,-1)"
   style="fill:none;stroke:#000000;stroke-width:0.99999994"
   d="m 987.96729,-339.57608 41.66861,0 0,10.76381 -41.66861,0 z"
   id="rect14" />





































<path
   d="m 781.76453,629.04927 c 0,2.45552 -1.54847,4.44819 -3.45541,4.44819 l -66.53306,0 0,6.22593 c 0,2.45553 -1.54847,4.4482 -3.45541,4.4482 l -34.5614,0 c -1.90937,0 -3.45784,-1.99267 -3.45784,-4.4482 l 0,-6.22593 -81.21917,0 0,6.09884 c 0,2.45553 -1.54847,4.4482 -3.45541,4.4482 l -34.56383,0 c -1.90694,0 -3.45541,-1.99267 -3.45541,-4.4482 l 0,-6.09884 -66.53063,0 c -1.90937,0 -3.45784,-1.99267 -3.45784,-4.44819 l 0,-242.39809 c 0,-2.45396 1.54847,-4.44664 3.45784,-4.44664 l 66.53063,0 0,-6.52447 c 0,-2.45397 1.54847,-4.44663 3.45541,-4.44663 l 34.56383,0 c 1.90694,0 3.45541,1.99266 3.45541,4.44663 l 0,6.52447 81.21917,0 0,-6.60877 c 0,-2.45397 1.54847,-4.44663 3.45784,-4.44663 l 34.5614,0 c 1.90694,0 3.45541,1.99266 3.45541,4.44663 l 0,6.60877 66.53306,0 c 1.90694,0 3.45541,1.99268 3.45541,4.44664 z"
   id="path90"
   inkscape:connector-curvature="0"
   style="fill:none;stroke:#000000;stroke-width:1"
   sodipodi:nodetypes="sscssssccsssscsssscssssccsssscsss" />

<rect
   x="251.9623"
   y="292.28125"
   width="9.0139999"
   height="22.677999"
   id="rect94"
   style="fill:none;stroke:#000000" />
<rect
   x="251.9623"
   y="344.15625"
   width="9.0139999"
   height="22.677999"
   id="rect96"
   style="fill:none;stroke:#000000" />
<rect
   x="420.34128"
   y="292.28125"
   width="9.0150003"
   height="22.677999"
   id="rect98"
   style="fill:none;stroke:#000000" />
<rect
   x="420.34128"
   y="344.15625"
   width="9.0150003"
   height="22.677999"
   id="rect100"
   style="fill:none;stroke:#000000" />
<path
   d="m 245.13028,293.698 c 0,-4.697 3.809,-8.504 8.504,-8.504 h 174.049 c 4.695,0 8.504,3.807 8.504,8.504 v 73.133 c 0,7.828 -6.346,14.173 -14.174,14.173 -5.243,0 -9.81,-2.854 -12.262,-7.086 h -138.185 c -2.451,4.232 -7.018,7.086 -12.262,7.086 -7.828,0 -14.174,-6.345 -14.174,-14.173 v -73.133 z"
   id="path102"
   inkscape:connector-curvature="0"
   style="fill:none;stroke:#000000" />
<path
   d="m 291.05228,349.399 0.709,-0.709 h 20.268 c 1.566,0 2.834,-1.27 2.834,-2.835 v -38.267 c 0,-1.565 -1.268,-2.835 -2.834,-2.835 h -43.938 c -1.564,0 -2.834,1.27 -2.834,2.835 v 38.268 c 0,1.565 1.27,2.835 2.834,2.835 h 20.27 l 0.709,0.709"
   id="path104"
   inkscape:connector-curvature="0"
   style="fill:none;stroke:#000000" />
<path
   stroke-miterlimit="2.6131"
   d="m 327.62128,304.753 c 0,-1.565 1.27,-2.835 2.835,-2.835 h 38.267 c 1.566,0 2.835,1.27 2.835,2.835 v 41.103 c 0,1.565 -1.269,2.835 -2.835,2.835 h -38.267 c -1.565,0 -2.835,-1.27 -2.835,-2.835 v -41.103 z"
   id="path106"
   inkscape:connector-curvature="0"
   style="fill:none;stroke:#000000;stroke-miterlimit:2.61310005" />
<path
   d="m 271.54928,361.789 v -7.415 h 1.045 l 2.377,3.751 c 0.55,0.869 0.979,1.65 1.331,2.41 l 0.021,-0.01 c -0.088,-0.99 -0.109,-1.892 -0.109,-3.047 v -3.102 h 0.902 v 7.415 h -0.969 l -2.354,-3.763 c -0.517,-0.825 -1.012,-1.672 -1.386,-2.476 l -0.033,0.01 c 0.055,0.935 0.077,1.826 0.077,3.059 v 3.168 h -0.902 z"
   id="path108"
   inkscape:connector-curvature="0"
   style="fill:#ed1c24" />
<path
   d="m 279.20828,359.302 c 0.022,1.309 0.858,1.848 1.826,1.848 0.693,0 1.111,-0.121 1.475,-0.274 l 0.165,0.692 c -0.341,0.154 -0.924,0.342 -1.771,0.342 -1.639,0 -2.618,-1.09 -2.618,-2.695 0,-1.606 0.946,-2.871 2.497,-2.871 1.738,0 2.201,1.529 2.201,2.508 0,0.198 -0.022,0.352 -0.033,0.451 h -3.742 z m 2.839,-0.693 c 0.011,-0.615 -0.253,-1.573 -1.342,-1.573 -0.979,0 -1.408,0.902 -1.485,1.573 h 2.827 z"
   id="path110"
   inkscape:connector-curvature="0"
   style="fill:#ed1c24" />
<path
   d="m 285.23628,355.187 v 1.277 h 1.386 v 0.736 h -1.386 v 2.871 c 0,0.66 0.187,1.035 0.726,1.035 0.264,0 0.418,-0.02 0.562,-0.07 l 0.044,0.727 c -0.188,0.08 -0.484,0.143 -0.858,0.143 -0.451,0 -0.814,-0.154 -1.045,-0.418 -0.275,-0.286 -0.374,-0.76 -0.374,-1.387 v -2.904 h -0.825 v -0.736 h 0.825 v -0.979 l 0.945,-0.299 z"
   id="path112"
   inkscape:connector-curvature="0"
   style="fill:#ed1c24" />
<path
   d="m 288.19728,356.465 0.704,2.706 c 0.153,0.594 0.297,1.144 0.396,1.694 h 0.033 c 0.121,-0.539 0.297,-1.111 0.473,-1.694 l 0.869,-2.706 h 0.814 l 0.825,2.662 c 0.198,0.638 0.353,1.199 0.473,1.738 h 0.033 c 0.088,-0.539 0.231,-1.101 0.407,-1.728 l 0.759,-2.673 h 0.958 l -1.717,5.324 h -0.88 l -0.814,-2.541 c -0.187,-0.594 -0.341,-1.123 -0.473,-1.75 h -0.022 c -0.132,0.639 -0.297,1.188 -0.483,1.761 l -0.858,2.53 h -0.88 l -1.606,-5.324 h 0.989 z"
   id="path114"
   inkscape:connector-curvature="0"
   style="fill:#ed1c24" />
<path
   d="m 300.50328,359.082 c 0,1.97 -1.364,2.828 -2.651,2.828 -1.441,0 -2.553,-1.057 -2.553,-2.739 0,-1.782 1.166,-2.827 2.641,-2.827 1.528,0 2.563,1.111 2.563,2.738 z m -4.225,0.06 c 0,1.166 0.671,2.046 1.617,2.046 0.924,0 1.617,-0.869 1.617,-2.068 0,-0.902 -0.451,-2.046 -1.596,-2.046 -1.143,0 -1.638,1.056 -1.638,2.068 z"
   id="path116"
   inkscape:connector-curvature="0"
   style="fill:#ed1c24" />
<path
   d="m 301.59328,358.125 c 0,-0.627 -0.011,-1.166 -0.044,-1.66 h 0.848 l 0.033,1.045 h 0.044 c 0.241,-0.715 0.825,-1.166 1.474,-1.166 0.11,0 0.188,0.01 0.275,0.03 v 0.912 c -0.1,-0.02 -0.198,-0.03 -0.33,-0.03 -0.683,0 -1.166,0.518 -1.298,1.244 -0.022,0.132 -0.044,0.285 -0.044,0.451 v 2.838 h -0.958 v -3.664 z"
   id="path118"
   inkscape:connector-curvature="0"
   style="fill:#ed1c24" />
<path
   d="m 306.01028,358.906 h 0.021 c 0.132,-0.187 0.319,-0.418 0.473,-0.604 l 1.562,-1.837 h 1.166 l -2.057,2.189 2.343,3.135 h -1.177 l -1.838,-2.553 -0.494,0.551 v 2.002 h -0.958 v -7.811 h 0.958 v 4.928 z"
   id="path120"
   inkscape:connector-curvature="0"
   style="fill:#ed1c24" />
<path
   d="m 342.39028,354.374 v 4.39 c 0,1.661 0.737,2.365 1.728,2.365 1.101,0 1.805,-0.727 1.805,-2.365 v -4.39 h 0.968 v 4.323 c 0,2.277 -1.199,3.213 -2.806,3.213 -1.518,0 -2.662,-0.869 -2.662,-3.168 v -4.368 h 0.967 z"
   id="path122"
   inkscape:connector-curvature="0"
   style="fill:#ed1c24" />
<path
   d="m 348.14128,360.623 c 0.429,0.264 1.057,0.484 1.716,0.484 0.979,0 1.552,-0.518 1.552,-1.266 0,-0.693 -0.396,-1.09 -1.397,-1.475 -1.21,-0.429 -1.958,-1.056 -1.958,-2.102 0,-1.154 0.957,-2.013 2.398,-2.013 0.759,0 1.309,0.177 1.639,0.363 l -0.264,0.78 c -0.242,-0.131 -0.737,-0.352 -1.408,-0.352 -1.012,0 -1.397,0.605 -1.397,1.111 0,0.693 0.451,1.034 1.475,1.43 1.254,0.484 1.893,1.09 1.893,2.179 0,1.145 -0.848,2.146 -2.597,2.146 -0.715,0 -1.496,-0.221 -1.893,-0.484 l 0.241,-0.801 z"
   id="path124"
   inkscape:connector-curvature="0"
   style="fill:#ed1c24" />
<path
   d="m 353.45428,354.472 c 0.418,-0.09 1.078,-0.154 1.749,-0.154 0.958,0 1.573,0.166 2.036,0.539 0.385,0.287 0.615,0.727 0.615,1.311 0,0.715 -0.473,1.342 -1.254,1.627 v 0.02 c 0.704,0.177 1.529,0.759 1.529,1.859 0,0.638 -0.253,1.122 -0.627,1.485 -0.518,0.473 -1.354,0.693 -2.563,0.693 -0.66,0 -1.166,-0.05 -1.485,-0.09 v -7.294 z m 0.957,6.59 c 0.188,0.03 0.462,0.04 0.804,0.04 0.99,0 1.903,-0.363 1.903,-1.441 0,-1.012 -0.869,-1.431 -1.915,-1.431 h -0.792 v 2.827 z m 0,-3.553 h 0.869 c 1.013,0 1.606,-0.528 1.606,-1.244 0,-0.869 -0.66,-1.209 -1.628,-1.209 -0.44,0 -0.693,0.03 -0.848,0.07 v 2.388 z"
   id="path126"
   inkscape:connector-curvature="0"
   style="fill:#ed1c24" />
<path
   d="m 289.07028,344.438 -0.709,0.708 h -9.639 c -1.566,0 -2.836,-1.269 -2.836,-2.834 v -1.805 c 0,-0.843 0.377,-1.643 1.025,-2.182 1.133,-0.939 1.811,-2.364 1.811,-3.809 0,-2.735 -2.227,-4.961 -4.961,-4.961 h -0.709 c -1.564,0 -2.834,-1.27 -2.834,-2.834 v -15.59 c 0,-1.564 1.27,-2.834 2.834,-2.834 h 34.016 c 1.566,0 2.836,1.27 2.836,2.834 v 15.592 c 0,1.564 -1.27,2.834 -2.836,2.834 h -0.709 c -2.734,0 -4.959,2.226 -4.959,4.961 0,1.444 0.676,2.869 1.809,3.809 0.65,0.539 1.025,1.339 1.025,2.182 v 1.805 c 0,1.565 -1.27,2.834 -2.834,2.834 h -9.639 l -0.709,-0.708"
   id="path128"
   inkscape:connector-curvature="0"
   style="fill:none;stroke:#000000" />
<path
   style="fill:none;stroke:#000000;stroke-width:1"
   d="m 729.25592,208.50795 12.29624,0 0,36.03619 -12.29624,0 z"
   id="rect130"
   inkscape:connector-curvature="0"
   sodipodi:nodetypes="ccccc" />
<path
   style="fill:none;stroke:#000000;stroke-width:1"
   d="m 729.25592,128.07661 12.29624,0 0,36.03619 -12.29624,0 z"
   id="rect132"
   inkscape:connector-curvature="0"
   sodipodi:nodetypes="ccccc" />
<path
   style="fill:none;stroke:#000000;stroke-width:1"
   d="m 464.20447,208.50795 12.29624,0 0,36.03619 -12.29624,0 z"
   id="rect134"
   inkscape:connector-curvature="0"
   sodipodi:nodetypes="ccccc" />
<path
   style="fill:none;stroke:#000000;stroke-width:1"
   d="m 464.20447,128.07661 12.29624,0 0,36.03619 -12.29624,0 z"
   id="rect136"
   inkscape:connector-curvature="0"
   sodipodi:nodetypes="ccccc" />
<path
   d="m 752.38615,240.28846 c 0,7.46371 -4.04109,13.51318 -11.48739,13.51318 l -276.0409,0 c -7.44629,0 -11.48739,-6.04947 -11.48739,-13.51318 l 0,-112.21109 c 0,-12.43899 8.06479,-22.52303 20.48003,-22.52303 8.31384,0 15.55712,4.53511 19.44759,11.25992 l 219.16203,0 c 3.89047,-6.72481 11.13375,-11.25992 19.44758,-11.25992 12.41525,0 20.26599,10.08588 20.48003,22.52303 l 0,112.21109 z"
   id="path138"
   inkscape:connector-curvature="0"
   style="fill:none;stroke:#000000;stroke-width:1"
   sodipodi:nodetypes="csssssccsscc" />
<path
   d="m 673.01302,152.85046 c 0,2.48525 -2.01423,4.50334 -4.49475,4.50334 H 556.12131 c -2.48051,0 -4.49473,-2.01809 -4.49473,-4.50334 v -6.75659 c 0,-2.48526 2.01422,-4.50333 4.49473,-4.50333 h 112.39696 c 2.48052,0 4.49475,2.01807 4.49475,4.50333 v 6.75659 z"
   id="path140"
   inkscape:connector-curvature="0"
   style="fill:none;stroke:#000000;stroke-width:1" />
<path
   d="m 532.38516,209.09923 c -0.73273,0.12712 -1.69226,0.22882 -2.91507,0.22882 -1.49877,0 -2.59946,-0.35118 -3.2973,-0.98044 -0.6455,-0.55934 -1.02774,-1.41583 -1.02774,-2.46459 0,-1.06625 0.31245,-1.90527 0.90561,-2.51704 0.80411,-0.85649 2.11257,-1.29348 3.59548,-1.29348 0.4536,0 0.8723,0.0159 1.22281,0.11123 v -4.72103 h 1.5178 v 11.64288 z m -1.5178,-5.68081 c -0.33148,-0.0953 -0.75177,-0.12713 -1.25612,-0.12713 -1.83183,0 -2.94837,0.89304 -2.94837,2.51863 0,1.55567 1.09751,2.30729 2.77391,2.30729 0.66296,0 1.16889,-0.0477 1.43058,-0.12713 v -4.57961 z"
   id="path142"
   inkscape:connector-curvature="0"
   style="fill:#ed1c24" />
<path
   d="m 516.06518,201.75787 c 0,-3.13041 2.16331,-4.4938 4.2045,-4.4938 2.28543,0 4.04906,1.67962 4.04906,4.35238 0,2.83167 -1.84928,4.49221 -4.18862,4.49221 -2.42343,0 -4.06494,-1.76542 -4.06494,-4.35079 z m 6.70087,-0.0953 c 0,-1.85282 -1.06421,-3.25118 -2.56457,-3.25118 -1.46547,0 -2.56456,1.38089 -2.56456,3.28614 0,1.43331 0.71528,3.25117 2.53126,3.25117 1.8128,0 2.59787,-1.67644 2.59787,-3.28613 z"
   id="path144"
   inkscape:connector-curvature="0"
   style="fill:#ed1c24" />
<path
   d="m 513.8987,205.91638 -1.11654,-4.29993 c -0.24266,-0.94389 -0.47105,-1.81786 -0.62806,-2.69184 h -0.0523 c -0.19191,0.8565 -0.47105,1.76543 -0.75018,2.69184 l -1.37824,4.29993 h -1.29101 l -1.30845,-4.23001 c -0.31403,-1.01381 -0.55986,-1.90526 -0.75018,-2.76176 h -0.0523 c -0.13957,0.8565 -0.36637,1.74954 -0.64551,2.74587 l -1.20377,4.24749 h -1.5194 l 2.72317,-8.46004 h 1.3957 l 1.29101,4.03776 c 0.29658,0.94388 0.54082,1.78448 0.75018,2.7808 h 0.0349 c 0.20935,-1.01539 0.47104,-1.88777 0.76604,-2.79829 l 1.36079,-4.02027 h 1.39568 l 2.54713,8.46004 h -1.56856 z"
   id="path146"
   inkscape:connector-curvature="0"
   style="fill:#ed1c24" />
<path
   d="m 501.1726,201.40669 c -0.0349,-2.08005 -1.36079,-2.93653 -2.89604,-2.93653 -1.0991,0 -1.76205,0.19227 -2.33936,0.43539 l -0.26169,-1.09961 c 0.54083,-0.24472 1.46547,-0.54345 2.80881,-0.54345 2.59947,0 4.15217,1.73205 4.15217,4.28245 0,2.552 -1.50037,4.56213 -3.96026,4.56213 -2.75647,0 -3.49079,-2.42964 -3.49079,-3.9853 0,-0.31464 0.0349,-0.55935 0.0523,-0.71667 h 5.93482 z m -4.50266,1.10121 c -0.0174,0.97726 0.40126,2.49955 2.12841,2.49955 1.5527,0 2.2331,-1.43331 2.35522,-2.49955 h -4.48363 z"
   id="path148"
   inkscape:connector-curvature="0"
   style="fill:#ed1c24" />
<path
   d="m 493.50427,203.27859 c 0,0.99631 0.0174,1.85281 0.0698,2.63779 h -1.34493 l -0.0523,-1.66054 h -0.0698 c -0.38223,1.13616 -1.30845,1.85282 -2.33777,1.85282 -0.17446,0 -0.29817,-0.0159 -0.43615,-0.0477 v -1.44919 c 0.1586,0.0318 0.31403,0.0477 0.52338,0.0477 1.08324,0 1.84928,-0.82313 2.05863,-1.97677 0.0349,-0.20975 0.0698,-0.45287 0.0698,-0.71665 v -4.50969 h 1.51939 v 5.82224 z"
   id="path150"
   inkscape:connector-curvature="0"
   style="fill:#ed1c24" />
<path
   d="m 639.44681,168.22282 c -0.68198,-0.41951 -1.6764,-0.7691 -2.72317,-0.7691 -1.55269,0 -2.45988,0.82313 -2.45988,2.01173 0,1.1012 0.62806,1.73205 2.21406,2.34383 1.92065,0.68169 3.10698,1.67802 3.10698,3.34016 0,1.83375 -1.5178,3.19873 -3.80324,3.19873 -1.20537,0 -2.07766,-0.28126 -2.60105,-0.57682 l 0.4203,-1.23945 c 0.38381,0.20817 1.16729,0.55934 2.23309,0.55934 1.60504,0 2.21406,-0.96137 2.21406,-1.76542 0,-1.1012 -0.71529,-1.64306 -2.33935,-2.27233 -1.98886,-0.76909 -3.00072,-1.73205 -3.00072,-3.46251 0,-1.81945 1.34334,-3.41007 4.11885,-3.41007 1.13399,0 2.37266,0.35117 3.00231,0.76909 l -0.38224,1.27282 z"
   id="path152"
   inkscape:connector-curvature="0"
   style="fill:#ed1c24" />
<path
   d="m 631.02196,177.99699 c -0.92622,0.14301 -2.02532,0.24471 -3.2291,0.24471 -2.18076,0 -3.73346,-0.50849 -4.76278,-1.46986 -1.04676,-0.95978 -1.65737,-2.32635 -1.65737,-4.23002 0,-1.92273 0.59158,-3.49588 1.69068,-4.58119 1.0991,-1.09962 2.91508,-1.69551 5.20051,-1.69551 1.08165,0 1.98885,0.0477 2.75648,0.14301 v 11.59204 z m -1.51939,-10.41932 c -0.38223,-0.0635 -0.94209,-0.0953 -1.53525,-0.0953 -3.24655,0 -5.0086,1.81785 -5.0086,4.99911 -0.0159,2.77923 1.5527,4.54465 4.76435,4.54465 0.78507,0 1.37824,-0.0635 1.7795,-0.15891 v -9.29587 z"
   id="path154"
   inkscape:connector-curvature="0"
   style="fill:#ed1c24" />
<path
   d="m 607.83299,166.75455 c 0.55986,-0.27967 1.67641,-0.57682 3.10698,-0.57682 3.31475,0 5.81112,2.11501 5.81112,5.97955 0,3.68816 -2.49637,6.1893 -6.1426,6.1893 -1.46546,0 -2.39169,-0.31463 -2.79136,-0.52438 l 0.36478,-1.24104 c 0.57572,0.28126 1.39727,0.48942 2.37266,0.48942 2.75648,0 4.5899,-1.76541 4.5899,-4.86086 0,-2.88252 -1.65738,-4.73534 -4.52011,-4.73534 -0.92464,0 -1.86673,0.19228 -2.47734,0.48943 l -0.31403,-1.20926 z"
   id="path156"
   inkscape:connector-curvature="0"
   style="fill:#ed1c24" />
<path
   d="m 600.25347,168.3992 c 0,-0.73413 -0.0349,-1.45079 -0.14115,-2.02761 h 1.39727 l 0.12212,1.06625 h 0.0507 c 0.47263,-0.66422 1.37824,-1.25852 2.58361,-1.25852 1.70971,0 2.58202,1.20767 2.58202,2.42964 0,2.04509 -1.8144,3.16377 -5.07681,3.14629 v 0.17321 c 0,0.69918 0.19191,1.95769 1.91907,1.95769 0.78507,0 1.60503,-0.24471 2.19978,-0.62926 l 0.34893,1.01539 c -0.69785,0.45447 -1.70972,0.75162 -2.77392,0.75162 -2.58361,0 -3.21008,-1.76542 -3.21008,-3.46092 v -3.16378 z m 1.48291,2.28822 c 1.67641,0.0318 3.57804,-0.26061 3.57804,-1.90526 0,-0.99633 -0.66295,-1.46827 -1.44803,-1.46827 -1.0991,0 -1.79853,0.69918 -2.04278,1.41742 -0.0507,0.1589 -0.0872,0.33211 -0.0872,0.48942 v 1.46669 z"
   id="path158"
   inkscape:connector-curvature="0"
   style="fill:#ed1c24" />
<path
   d="m 598.06479,172.19223 c 0,0.99633 0.0175,1.85282 0.0697,2.63781 h -1.34493 l -0.0507,-1.66054 h -0.0698 c -0.38381,1.13616 -1.30845,1.85281 -2.33936,1.85281 -0.17287,0 -0.29658,-0.0159 -0.43614,-0.0477 v -1.4492 c 0.1586,0.0318 0.31561,0.0477 0.52337,0.0477 1.08325,0 1.85088,-0.82313 2.06023,-1.97678 0.0333,-0.20974 0.0697,-0.45286 0.0697,-0.71665 v -4.50969 h 1.5178 v 5.82223 z"
   id="path160"
   inkscape:connector-curvature="0"
   style="fill:#ed1c24" />
<path
   d="m 585.35137,178.78197 v -10.22704 c 0,-0.75162 -0.0175,-1.60811 -0.0698,-2.18493 h 1.37823 l 0.0698,1.46827 h 0.0349 c 0.47104,-0.94389 1.49877,-1.66054 2.87701,-1.66054 2.04119,0 3.61133,1.73205 3.61133,4.30152 0.019,2.81419 -1.72716,4.54306 -3.78579,4.54306 -1.29101,0 -2.16331,-0.61178 -2.54712,-1.29189 h -0.0349 v 5.05155 h -1.53367 z m 1.53526,-7.39537 c 0,0.19227 0.019,0.45445 0.0713,0.64674 0.22681,0.97884 1.06263,1.7829 2.21407,1.7829 1.58917,0 2.53127,-1.39836 2.53127,-3.27024 0,-1.71299 -0.83741,-3.12882 -2.49479,-3.12882 -1.02931,0 -1.97141,0.68328 -2.25055,1.83534 -0.0523,0.20975 -0.0713,0.4195 -0.0713,0.66421 v 1.46987 z"
   id="path162"
   inkscape:connector-curvature="0"
   style="fill:#ed1c24" />
<path
   d="m 493.40594,188.43696 c -4.96578,0 -8.99265,-4.03456 -8.99265,-9.00984 v -22.51985 c 0,-4.97527 4.02687,-9.00984 8.99265,-9.00984 h 35.96741 c 4.96577,0 8.98947,4.03457 8.98947,9.00984 v 22.51985 c 0,4.97528 -4.0237,9.00984 -8.98947,9.00984 h -35.96741 z"
   id="path164"
   inkscape:connector-curvature="0"
   style="fill:none;stroke:#000000;stroke-width:1" />















































































































<path
   d="m 507.89169,413.26236 c -0.372,0.192 -1.152,0.384 -2.135,0.384 -2.279,0 -3.982,-1.439 -3.982,-4.102 0,-2.542 1.715,-4.246 4.222,-4.246 0.995,0 1.644,0.216 1.919,0.36 l -0.264,0.852 c -0.384,-0.192 -0.947,-0.336 -1.619,-0.336 -1.895,0 -3.154,1.211 -3.154,3.334 0,1.991 1.139,3.25 3.094,3.25 0.648,0 1.296,-0.132 1.716,-0.336 l 0.203,0.84 z"
   id="path388"
   inkscape:connector-curvature="0"
   style="fill:#ed1c24" />
<path
   d="m 509.14169,409.52136 c 0,-0.684 -0.012,-1.271 -0.047,-1.811 h 0.923 l 0.048,1.151 h 0.036 c 0.264,-0.78 0.911,-1.271 1.619,-1.271 0.108,0 0.192,0.01 0.288,0.02 v 0.996 c -0.108,-0.02 -0.217,-0.02 -0.359,-0.02 -0.744,0 -1.271,0.552 -1.416,1.343 -0.023,0.144 -0.035,0.324 -0.035,0.492 v 3.094 h -1.057 v -3.994 z"
   id="path390"
   inkscape:connector-curvature="0"
   style="fill:#ed1c24" />
<path
   d="m 513.53469,410.80436 c 0.023,1.427 0.924,2.015 1.99,2.015 0.756,0 1.224,-0.132 1.607,-0.3 l 0.191,0.756 c -0.371,0.168 -1.019,0.372 -1.942,0.372 -1.787,0 -2.854,-1.188 -2.854,-2.938 0,-1.75 1.031,-3.118 2.723,-3.118 1.907,0 2.398,1.655 2.398,2.723 0,0.216 -0.012,0.372 -0.035,0.492 h -4.078 z m 3.093,-0.756 c 0.012,-0.66 -0.275,-1.703 -1.463,-1.703 -1.079,0 -1.535,0.971 -1.619,1.703 h 3.082 z"
   id="path392"
   inkscape:connector-curvature="0"
   style="fill:#ed1c24" />
<path
   d="m 523.03669,412.12336 c 0,0.503 0.023,0.995 0.084,1.391 h -0.947 l -0.084,-0.731 h -0.037 c -0.323,0.456 -0.947,0.863 -1.774,0.863 -1.175,0 -1.774,-0.828 -1.774,-1.667 0,-1.403 1.246,-2.171 3.489,-2.159 v -0.12 c 0,-0.468 -0.132,-1.343 -1.319,-1.331 -0.551,0 -1.115,0.156 -1.523,0.432 l -0.239,-0.708 c 0.479,-0.3 1.188,-0.504 1.919,-0.504 1.775,0 2.207,1.211 2.207,2.363 v 2.171 z m -1.02,-1.571 c -1.151,-0.02 -2.459,0.18 -2.459,1.307 0,0.696 0.456,1.008 0.983,1.008 0.768,0 1.259,-0.48 1.427,-0.972 0.037,-0.12 0.049,-0.24 0.049,-0.336 v -1.007 z"
   id="path394"
   inkscape:connector-curvature="0"
   style="fill:#ed1c24" />
<path
   d="m 525.96569,406.31836 v 1.392 h 1.511 v 0.803 h -1.511 v 3.13 c 0,0.72 0.203,1.127 0.791,1.127 0.287,0 0.455,-0.02 0.611,-0.07 l 0.049,0.803 c -0.205,0.07 -0.528,0.144 -0.936,0.144 -0.492,0 -0.889,-0.168 -1.141,-0.444 -0.287,-0.324 -0.407,-0.839 -0.407,-1.523 v -3.167 h -0.899 v -0.803 h 0.899 v -1.08 l 1.033,-0.31 z"
   id="path396"
   inkscape:connector-curvature="0"
   style="fill:#ed1c24" />
<path
   d="m 529.84069,406.07836 c 0,0.36 -0.252,0.648 -0.671,0.648 -0.384,0 -0.636,-0.288 -0.636,-0.648 0,-0.36 0.264,-0.66 0.66,-0.66 0.384,10e-4 0.647,0.289 0.647,0.66 z m -1.175,7.436 v -5.805 h 1.056 v 5.805 h -1.056 z"
   id="path398"
   inkscape:connector-curvature="0"
   style="fill:#ed1c24" />
<path
   d="m 531.88169,407.71036 1.14,3.25 c 0.192,0.54 0.348,1.02 0.468,1.499 h 0.035 c 0.133,-0.479 0.301,-0.959 0.492,-1.499 l 1.127,-3.25 h 1.104 l -2.278,5.805 h -1.007 l -2.207,-5.805 h 1.126 z"
   id="path400"
   inkscape:connector-curvature="0"
   style="fill:#ed1c24" />
<path
   d="m 537.71369,410.80436 c 0.023,1.427 0.924,2.015 1.99,2.015 0.756,0 1.224,-0.132 1.607,-0.3 l 0.191,0.756 c -0.371,0.168 -1.019,0.372 -1.942,0.372 -1.787,0 -2.854,-1.188 -2.854,-2.938 0,-1.75 1.031,-3.118 2.723,-3.118 1.907,0 2.398,1.655 2.398,2.723 0,0.216 -0.012,0.372 -0.035,0.492 h -4.078 z m 3.094,-0.756 c 0.012,-0.66 -0.275,-1.703 -1.463,-1.703 -1.079,0 -1.535,0.971 -1.619,1.703 h 3.082 z"
   id="path402"
   inkscape:connector-curvature="0"
   style="fill:#ed1c24" />
<path
   d="m 551.35469,413.26236 c -0.371,0.192 -1.151,0.384 -2.135,0.384 -2.279,0 -3.982,-1.439 -3.982,-4.102 0,-2.542 1.716,-4.246 4.223,-4.246 0.995,0 1.643,0.216 1.918,0.36 l -0.264,0.852 c -0.383,-0.192 -0.947,-0.336 -1.619,-0.336 -1.895,0 -3.154,1.211 -3.154,3.334 0,1.991 1.14,3.25 3.095,3.25 0.647,0 1.296,-0.132 1.716,-0.336 l 0.202,0.84 z"
   id="path404"
   inkscape:connector-curvature="0"
   style="fill:#ed1c24" />
<path
   d="m 557.76269,410.56436 c 0,2.146 -1.499,3.082 -2.891,3.082 -1.559,0 -2.782,-1.151 -2.782,-2.986 0,-1.931 1.284,-3.07 2.878,-3.07 1.668,0 2.795,1.211 2.795,2.974 z m -4.594,0.06 c 0,1.271 0.721,2.231 1.752,2.231 1.007,0 1.763,-0.947 1.763,-2.255 0,-0.983 -0.491,-2.219 -1.739,-2.219 -1.236,0 -1.776,1.151 -1.776,2.243 z"
   id="path406"
   inkscape:connector-curvature="0"
   style="fill:#ed1c24" />
<path
   d="m 559.09769,409.28136 c 0,-0.611 -0.024,-1.091 -0.048,-1.571 h 0.924 l 0.047,0.947 h 0.037 c 0.323,-0.552 0.863,-1.067 1.834,-1.067 0.78,0 1.38,0.48 1.632,1.164 h 0.024 c 0.18,-0.336 0.419,-0.576 0.659,-0.756 0.348,-0.264 0.72,-0.408 1.271,-0.408 0.78,0 1.92,0.504 1.92,2.519 v 3.406 h -1.031 v -3.274 c 0,-1.127 -0.42,-1.787 -1.26,-1.787 -0.611,0 -1.067,0.443 -1.26,0.947 -0.047,0.156 -0.084,0.336 -0.084,0.528 v 3.586 h -1.031 v -3.478 c 0,-0.923 -0.408,-1.583 -1.211,-1.583 -0.648,0 -1.14,0.527 -1.308,1.055 -0.06,0.144 -0.084,0.336 -0.084,0.516 v 3.49 h -1.031 v -4.234 z"
   id="path408"
   inkscape:connector-curvature="0"
   style="fill:#ed1c24" />
<path
   d="m 569.10569,409.28136 c 0,-0.611 -0.024,-1.091 -0.048,-1.571 h 0.924 l 0.047,0.947 h 0.037 c 0.323,-0.552 0.863,-1.067 1.834,-1.067 0.78,0 1.38,0.48 1.632,1.164 h 0.024 c 0.18,-0.336 0.419,-0.576 0.659,-0.756 0.348,-0.264 0.72,-0.408 1.271,-0.408 0.78,0 1.92,0.504 1.92,2.519 v 3.406 h -1.031 v -3.274 c 0,-1.127 -0.42,-1.787 -1.26,-1.787 -0.611,0 -1.067,0.443 -1.26,0.947 -0.047,0.156 -0.084,0.336 -0.084,0.528 v 3.586 h -1.031 v -3.478 c 0,-0.923 -0.408,-1.583 -1.211,-1.583 -0.648,0 -1.14,0.527 -1.308,1.055 -0.06,0.144 -0.084,0.336 -0.084,0.516 v 3.49 h -1.031 v -4.234 z"
   id="path410"
   inkscape:connector-curvature="0"
   style="fill:#ed1c24" />
<path
   d="m 584.36669,410.56436 c 0,2.146 -1.498,3.082 -2.89,3.082 -1.56,0 -2.782,-1.151 -2.782,-2.986 0,-1.931 1.283,-3.07 2.878,-3.07 1.667,0 2.794,1.211 2.794,2.974 z m -4.593,0.06 c 0,1.271 0.72,2.231 1.751,2.231 1.008,0 1.764,-0.947 1.764,-2.255 0,-0.983 -0.492,-2.219 -1.74,-2.219 -1.235,0 -1.775,1.151 -1.775,2.243 z"
   id="path412"
   inkscape:connector-curvature="0"
   style="fill:#ed1c24" />
<path
   d="m 585.70269,409.28136 c 0,-0.611 -0.013,-1.091 -0.049,-1.571 h 0.936 l 0.061,0.959 h 0.023 c 0.288,-0.54 0.96,-1.08 1.92,-1.08 0.803,0 2.051,0.48 2.051,2.471 v 3.454 h -1.057 v -3.346 c 0,-0.936 -0.348,-1.715 -1.343,-1.715 -0.684,0 -1.224,0.492 -1.415,1.079 -0.048,0.132 -0.072,0.312 -0.072,0.492 v 3.49 h -1.055 v -4.233 z"
   id="path414"
   inkscape:connector-curvature="0"
   style="fill:#ed1c24" />
<path
   d="m 592.21769,412.44736 c 0.323,0.192 0.875,0.408 1.402,0.408 0.756,0 1.115,-0.372 1.115,-0.863 0,-0.504 -0.299,-0.768 -1.066,-1.056 -1.056,-0.384 -1.547,-0.947 -1.547,-1.643 0,-0.936 0.768,-1.703 2.002,-1.703 0.588,0 1.104,0.156 1.416,0.36 l -0.252,0.768 c -0.229,-0.144 -0.648,-0.348 -1.188,-0.348 -0.624,0 -0.959,0.36 -0.959,0.792 0,0.479 0.335,0.695 1.091,0.995 0.995,0.372 1.522,0.876 1.522,1.739 0,1.031 -0.803,1.751 -2.158,1.751 -0.636,0 -1.223,-0.168 -1.631,-0.408 l 0.253,-0.792 z"
   id="path416"
   inkscape:connector-curvature="0"
   style="fill:#ed1c24" />
<path
   d="m 599.32169,413.51436 v -0.647 l 0.828,-0.804 c 1.99,-1.895 2.902,-2.902 2.902,-4.078 0,-0.792 -0.372,-1.523 -1.535,-1.523 -0.708,0 -1.296,0.36 -1.655,0.66 l -0.336,-0.744 c 0.528,-0.444 1.308,-0.792 2.194,-0.792 1.68,0 2.387,1.151 2.387,2.267 0,1.439 -1.043,2.603 -2.686,4.186 l -0.612,0.576 v 0.02 h 3.49 v 0.875 h -4.977 z"
   id="path418"
   inkscape:connector-curvature="0"
   style="fill:#ed1c24" />
<path
   d="m 605.56169,412.89136 c 0,-0.432 0.299,-0.756 0.719,-0.756 0.42,0 0.708,0.312 0.708,0.756 0,0.432 -0.288,0.755 -0.731,0.755 -0.409,0 -0.696,-0.323 -0.696,-0.755 z"
   id="path420"
   inkscape:connector-curvature="0"
   style="fill:#ed1c24" />
<path
   d="m 612.61469,406.60636 h -2.975 l -0.299,2.003 c 0.18,-0.02 0.348,-0.04 0.635,-0.04 0.612,0 1.199,0.12 1.68,0.42 0.611,0.336 1.115,1.02 1.115,1.991 0,1.523 -1.211,2.663 -2.902,2.663 -0.852,0 -1.559,-0.24 -1.943,-0.479 l 0.264,-0.804 c 0.324,0.192 0.96,0.432 1.68,0.432 0.983,0 1.847,-0.647 1.835,-1.691 0,-1.007 -0.684,-1.715 -2.231,-1.715 -0.455,0 -0.803,0.04 -1.091,0.07 l 0.504,-3.742 h 3.729 v 0.886 z"
   id="path422"
   inkscape:connector-curvature="0"
   style="fill:#ed1c24" />
<path
   d="m 613.76869,415.00236 c 0.264,-0.72 0.588,-2.003 0.721,-2.878 l 1.175,-0.12 c -0.288,1.02 -0.815,2.351 -1.151,2.915 l -0.745,0.08 z"
   id="path424"
   inkscape:connector-curvature="0"
   style="fill:#ed1c24" />
<path
   d="m 620.82369,410.97236 -0.839,2.542 h -1.079 l 2.758,-8.083 h 1.248 l 2.758,8.083 h -1.115 l -0.863,-2.542 h -2.868 z m 2.663,-0.816 -0.804,-2.327 c -0.18,-0.527 -0.3,-1.007 -0.42,-1.475 h -0.023 c -0.12,0.468 -0.24,0.972 -0.408,1.463 l -0.791,2.338 h 2.446 z"
   id="path426"
   inkscape:connector-curvature="0"
   style="fill:#ed1c24" />
<path
   d="m 627.97569,406.31836 v 1.392 h 1.512 v 0.803 h -1.512 v 3.13 c 0,0.72 0.204,1.127 0.792,1.127 0.288,0 0.456,-0.02 0.611,-0.07 l 0.048,0.803 c -0.203,0.07 -0.527,0.144 -0.936,0.144 -0.491,0 -0.887,-0.168 -1.139,-0.444 -0.288,-0.324 -0.408,-0.839 -0.408,-1.523 v -3.167 h -0.899 v -0.803 h 0.899 v -1.08 l 1.032,-0.31 z"
   id="path428"
   inkscape:connector-curvature="0"
   style="fill:#ed1c24" />
<path
   d="m 631.94869,406.31836 v 1.392 h 1.511 v 0.803 h -1.511 v 3.13 c 0,0.72 0.203,1.127 0.791,1.127 0.287,0 0.455,-0.02 0.611,-0.07 l 0.049,0.803 c -0.205,0.07 -0.528,0.144 -0.936,0.144 -0.492,0 -0.889,-0.168 -1.141,-0.444 -0.287,-0.324 -0.407,-0.839 -0.407,-1.523 v -3.167 h -0.899 v -0.803 h 0.899 v -1.08 l 1.033,-0.31 z"
   id="path430"
   inkscape:connector-curvature="0"
   style="fill:#ed1c24" />
<path
   d="m 634.64869,409.52136 c 0,-0.684 -0.012,-1.271 -0.048,-1.811 h 0.924 l 0.047,1.151 h 0.037 c 0.264,-0.78 0.911,-1.271 1.619,-1.271 0.107,0 0.191,0.01 0.287,0.02 v 0.996 c -0.107,-0.02 -0.216,-0.02 -0.359,-0.02 -0.744,0 -1.271,0.552 -1.416,1.343 -0.023,0.144 -0.035,0.324 -0.035,0.492 v 3.094 h -1.056 v -3.994 z"
   id="path432"
   inkscape:connector-curvature="0"
   style="fill:#ed1c24" />
<path
   d="m 639.79569,406.07836 c 0,0.36 -0.252,0.648 -0.672,0.648 -0.384,0 -0.636,-0.288 -0.636,-0.648 0,-0.36 0.264,-0.66 0.659,-0.66 0.386,10e-4 0.649,0.289 0.649,0.66 z m -1.175,7.436 v -5.805 h 1.056 v 5.805 h -1.056 z"
   id="path434"
   inkscape:connector-curvature="0"
   style="fill:#ed1c24" />
<path
   d="m 641.42869,404.99936 h 1.043 v 3.646 h 0.023 c 0.373,-0.648 1.044,-1.056 1.979,-1.056 1.451,0 2.458,1.199 2.458,2.95 0,2.075 -1.318,3.106 -2.613,3.106 -0.84,0 -1.512,-0.324 -1.955,-1.079 h -0.024 l -0.06,0.947 h -0.9 c 0.024,-0.396 0.049,-0.983 0.049,-1.499 v -7.015 z m 1.043,6.189 c 0,0.132 0.012,0.264 0.048,0.384 0.192,0.731 0.815,1.235 1.583,1.235 1.115,0 1.764,-0.899 1.764,-2.231 0,-1.163 -0.6,-2.159 -1.739,-2.159 -0.708,0 -1.38,0.504 -1.595,1.295 -0.037,0.132 -0.061,0.276 -0.061,0.443 v 1.033 z"
   id="path436"
   inkscape:connector-curvature="0"
   style="fill:#ed1c24" />
<path
   d="m 653.11369,411.91936 c 0,0.612 0.012,1.14 0.048,1.595 h -0.936 l -0.061,-0.947 h -0.023 c -0.264,0.468 -0.887,1.079 -1.919,1.079 -0.911,0 -2.003,-0.516 -2.003,-2.542 v -3.394 h 1.056 v 3.202 c 0,1.104 0.348,1.859 1.296,1.859 0.707,0 1.199,-0.492 1.391,-0.971 0.061,-0.144 0.096,-0.336 0.096,-0.54 v -3.55 h 1.056 v 4.209 z"
   id="path438"
   inkscape:connector-curvature="0"
   style="fill:#ed1c24" />
<path
   d="m 656.13969,406.31836 v 1.392 h 1.512 v 0.803 h -1.512 v 3.13 c 0,0.72 0.203,1.127 0.791,1.127 0.288,0 0.456,-0.02 0.612,-0.07 l 0.048,0.803 c -0.204,0.07 -0.527,0.144 -0.936,0.144 -0.492,0 -0.888,-0.168 -1.14,-0.444 -0.288,-0.324 -0.407,-0.839 -0.407,-1.523 v -3.167 h -0.9 v -0.803 h 0.9 v -1.08 l 1.032,-0.31 z"
   id="path440"
   inkscape:connector-curvature="0"
   style="fill:#ed1c24" />
<path
   d="m 660.01469,406.07836 c 0,0.36 -0.252,0.648 -0.671,0.648 -0.384,0 -0.636,-0.288 -0.636,-0.648 0,-0.36 0.264,-0.66 0.66,-0.66 0.383,10e-4 0.647,0.289 0.647,0.66 z m -1.175,7.436 v -5.805 h 1.056 v 5.805 h -1.056 z"
   id="path442"
   inkscape:connector-curvature="0"
   style="fill:#ed1c24" />
<path
   d="m 666.90169,410.56436 c 0,2.146 -1.5,3.082 -2.891,3.082 -1.559,0 -2.783,-1.151 -2.783,-2.986 0,-1.931 1.284,-3.07 2.879,-3.07 1.668,0 2.795,1.211 2.795,2.974 z m -4.594,0.06 c 0,1.271 0.72,2.231 1.751,2.231 1.007,0 1.763,-0.947 1.763,-2.255 0,-0.983 -0.491,-2.219 -1.738,-2.219 -1.237,0 -1.776,1.151 -1.776,2.243 z"
   id="path444"
   inkscape:connector-curvature="0"
   style="fill:#ed1c24" />
<path
   d="m 668.23569,409.28136 c 0,-0.611 -0.012,-1.091 -0.047,-1.571 h 0.936 l 0.06,0.959 h 0.024 c 0.287,-0.54 0.959,-1.08 1.918,-1.08 0.804,0 2.051,0.48 2.051,2.471 v 3.454 h -1.055 v -3.346 c 0,-0.936 -0.348,-1.715 -1.344,-1.715 -0.684,0 -1.223,0.492 -1.415,1.079 -0.048,0.132 -0.071,0.312 -0.071,0.492 v 3.49 h -1.057 v -4.233 z"
   id="path446"
   inkscape:connector-curvature="0"
   style="fill:#ed1c24" />
<path
   d="m 674.21169,415.00236 c 0.264,-0.72 0.588,-2.003 0.72,-2.878 l 1.175,-0.12 c -0.287,1.02 -0.814,2.351 -1.15,2.915 l -0.745,0.08 z"
   id="path448"
   inkscape:connector-curvature="0"
   style="fill:#ed1c24" />
<path
   d="m 679.82769,412.24336 c 0.468,0.3 1.14,0.528 1.859,0.528 1.067,0 1.691,-0.563 1.691,-1.379 0,-0.743 -0.432,-1.187 -1.523,-1.595 -1.319,-0.48 -2.135,-1.176 -2.135,-2.303 0,-1.259 1.043,-2.195 2.614,-2.195 0.815,0 1.427,0.192 1.774,0.396 l -0.287,0.852 c -0.252,-0.156 -0.791,-0.384 -1.523,-0.384 -1.104,0 -1.523,0.66 -1.523,1.211 0,0.755 0.492,1.127 1.607,1.559 1.367,0.528 2.051,1.188 2.051,2.375 0,1.248 -0.911,2.339 -2.818,2.339 -0.779,0 -1.631,-0.24 -2.062,-0.528 l 0.275,-0.876 z"
   id="path450"
   inkscape:connector-curvature="0"
   style="fill:#ed1c24" />
<path
   d="m 685.83869,404.99936 h 1.057 v 3.634 h 0.023 c 0.168,-0.3 0.432,-0.576 0.756,-0.755 0.312,-0.18 0.684,-0.288 1.079,-0.288 0.779,0 2.026,0.48 2.026,2.471 v 3.454 h -1.055 v -3.334 c 0,-0.936 -0.348,-1.715 -1.344,-1.715 -0.684,0 -1.211,0.48 -1.415,1.043 -0.06,0.156 -0.071,0.312 -0.071,0.504 v 3.502 h -1.057 v -8.516 z"
   id="path452"
   inkscape:connector-curvature="0"
   style="fill:#ed1c24" />
<path
   d="m 696.57769,412.12336 c 0,0.503 0.023,0.995 0.084,1.391 h -0.947 l -0.084,-0.731 h -0.036 c -0.323,0.456 -0.947,0.863 -1.774,0.863 -1.176,0 -1.775,-0.828 -1.775,-1.667 0,-1.403 1.247,-2.171 3.49,-2.159 v -0.12 c 0,-0.468 -0.133,-1.343 -1.319,-1.331 -0.552,0 -1.116,0.156 -1.523,0.432 l -0.239,-0.708 c 0.479,-0.3 1.187,-0.504 1.918,-0.504 1.775,0 2.207,1.211 2.207,2.363 v 2.171 z m -1.02,-1.571 c -1.151,-0.02 -2.459,0.18 -2.459,1.307 0,0.696 0.457,1.008 0.984,1.008 0.768,0 1.259,-0.48 1.427,-0.972 0.036,-0.12 0.048,-0.24 0.048,-0.336 v -1.007 z"
   id="path454"
   inkscape:connector-curvature="0"
   style="fill:#ed1c24" />
<path
   d="m 698.28369,409.52136 c 0,-0.684 -0.012,-1.271 -0.048,-1.811 h 0.924 l 0.047,1.151 h 0.037 c 0.264,-0.78 0.911,-1.271 1.619,-1.271 0.107,0 0.191,0.01 0.287,0.02 v 0.996 c -0.107,-0.02 -0.216,-0.02 -0.359,-0.02 -0.744,0 -1.271,0.552 -1.416,1.343 -0.023,0.144 -0.035,0.324 -0.035,0.492 v 3.094 h -1.056 v -3.994 z"
   id="path456"
   inkscape:connector-curvature="0"
   style="fill:#ed1c24" />
<path
   d="m 702.67469,410.80436 c 0.024,1.427 0.924,2.015 1.991,2.015 0.755,0 1.224,-0.132 1.606,-0.3 l 0.192,0.756 c -0.372,0.168 -1.019,0.372 -1.942,0.372 -1.787,0 -2.855,-1.188 -2.855,-2.938 0,-1.75 1.032,-3.118 2.723,-3.118 1.907,0 2.399,1.655 2.399,2.723 0,0.216 -0.013,0.372 -0.036,0.492 h -4.078 z m 3.095,-0.756 c 0.012,-0.66 -0.276,-1.703 -1.464,-1.703 -1.079,0 -1.535,0.971 -1.619,1.703 h 3.083 z"
   id="path458"
   inkscape:connector-curvature="0"
   style="fill:#ed1c24" />
<path
   d="m 710.88169,409.89236 v 0.768 h -2.963 v -0.768 h 2.963 z"
   id="path460"
   inkscape:connector-curvature="0"
   style="fill:#ed1c24" />
<path
   d="m 716.19669,412.12336 c 0,0.503 0.024,0.995 0.084,1.391 h -0.947 l -0.084,-0.731 h -0.035 c -0.324,0.456 -0.947,0.863 -1.775,0.863 -1.176,0 -1.775,-0.828 -1.775,-1.667 0,-1.403 1.248,-2.171 3.49,-2.159 v -0.12 c 0,-0.468 -0.132,-1.343 -1.319,-1.331 -0.552,0 -1.115,0.156 -1.522,0.432 l -0.24,-0.708 c 0.479,-0.3 1.188,-0.504 1.919,-0.504 1.774,0 2.206,1.211 2.206,2.363 v 2.171 z m -1.019,-1.571 c -1.151,-0.02 -2.459,0.18 -2.459,1.307 0,0.696 0.456,1.008 0.983,1.008 0.768,0 1.26,-0.48 1.428,-0.972 0.035,-0.12 0.048,-0.24 0.048,-0.336 v -1.007 z"
   id="path462"
   inkscape:connector-curvature="0"
   style="fill:#ed1c24" />
<path
   d="m 717.90369,404.99936 h 1.055 v 8.515 h -1.055 v -8.515 z"
   id="path464"
   inkscape:connector-curvature="0"
   style="fill:#ed1c24" />
<path
   d="m 721.91069,406.07836 c 0,0.36 -0.252,0.648 -0.671,0.648 -0.385,0 -0.637,-0.288 -0.637,-0.648 0,-0.36 0.264,-0.66 0.66,-0.66 0.384,10e-4 0.648,0.289 0.648,0.66 z m -1.175,7.436 v -5.805 h 1.055 v 5.805 h -1.055 z"
   id="path466"
   inkscape:connector-curvature="0"
   style="fill:#ed1c24" />
<path
   d="m 724.58669,410.37236 h 0.023 c 0.145,-0.204 0.336,-0.456 0.504,-0.66 l 1.715,-2.003 h 1.26 l -2.23,2.387 2.554,3.418 h -1.295 l -1.991,-2.782 -0.539,0.6 v 2.183 h -1.044 v -8.515 h 1.044 v 5.372 z"
   id="path468"
   inkscape:connector-curvature="0"
   style="fill:#ed1c24" />
<path
   d="m 729.75869,410.80436 c 0.023,1.427 0.924,2.015 1.99,2.015 0.756,0 1.224,-0.132 1.607,-0.3 l 0.191,0.756 c -0.371,0.168 -1.019,0.372 -1.942,0.372 -1.787,0 -2.854,-1.188 -2.854,-2.938 0,-1.75 1.031,-3.118 2.723,-3.118 1.907,0 2.398,1.655 2.398,2.723 0,0.216 -0.012,0.372 -0.035,0.492 h -4.078 z m 3.094,-0.756 c 0.012,-0.66 -0.275,-1.703 -1.463,-1.703 -1.079,0 -1.535,0.971 -1.619,1.703 h 3.082 z"
   id="path470"
   inkscape:connector-curvature="0"
   style="fill:#ed1c24" />
<path
   d="m 502.25469,419.95136 c 0.635,-0.108 1.391,-0.18 2.219,-0.18 1.498,0 2.566,0.36 3.273,1.007 0.732,0.66 1.151,1.595 1.151,2.902 0,1.319 -0.419,2.399 -1.163,3.143 -0.768,0.755 -2.016,1.163 -3.586,1.163 -0.756,0 -1.367,-0.04 -1.895,-0.1 v -7.939 z m 1.043,7.148 c 0.264,0.04 0.647,0.05 1.055,0.05 2.243,0 3.443,-1.248 3.443,-3.43 0.012,-1.907 -1.068,-3.118 -3.275,-3.118 -0.539,0 -0.947,0.05 -1.223,0.108 v 6.392 z"
   id="path472"
   inkscape:connector-curvature="0"
   style="fill:#ed1c24" />
<path
   d="m 510.84669,425.20436 c 0.023,1.427 0.923,2.015 1.99,2.015 0.756,0 1.223,-0.132 1.607,-0.3 l 0.191,0.756 c -0.371,0.168 -1.02,0.372 -1.943,0.372 -1.787,0 -2.854,-1.187 -2.854,-2.938 0,-1.751 1.031,-3.118 2.723,-3.118 1.906,0 2.398,1.655 2.398,2.723 0,0.216 -0.012,0.372 -0.036,0.492 h -4.076 z m 3.094,-0.756 c 0.012,-0.659 -0.275,-1.703 -1.463,-1.703 -1.08,0 -1.535,0.971 -1.619,1.703 h 3.082 z"
   id="path474"
   inkscape:connector-curvature="0"
   style="fill:#ed1c24" />
<path
   d="m 516.12569,426.84736 c 0.324,0.192 0.875,0.408 1.403,0.408 0.756,0 1.115,-0.372 1.115,-0.863 0,-0.504 -0.3,-0.768 -1.067,-1.056 -1.055,-0.384 -1.547,-0.947 -1.547,-1.643 0,-0.936 0.768,-1.703 2.003,-1.703 0.587,0 1.104,0.156 1.415,0.36 l -0.252,0.768 c -0.228,-0.144 -0.647,-0.348 -1.188,-0.348 -0.623,0 -0.959,0.36 -0.959,0.792 0,0.479 0.336,0.695 1.092,0.996 0.995,0.372 1.522,0.875 1.522,1.739 0,1.031 -0.804,1.751 -2.159,1.751 -0.635,0 -1.223,-0.168 -1.631,-0.408 l 0.253,-0.793 z"
   id="path476"
   inkscape:connector-curvature="0"
   style="fill:#ed1c24" />
<path
   d="m 522.19769,420.47836 c 0,0.36 -0.252,0.648 -0.671,0.648 -0.385,0 -0.637,-0.288 -0.637,-0.648 0,-0.36 0.264,-0.66 0.66,-0.66 0.384,0 0.648,0.289 0.648,0.66 z m -1.175,7.436 v -5.805 h 1.055 v 5.805 h -1.055 z"
   id="path478"
   inkscape:connector-curvature="0"
   style="fill:#ed1c24" />
<path
   d="m 528.79469,427.06336 c 0,1.343 -0.276,2.147 -0.827,2.663 -0.576,0.516 -1.392,0.696 -2.123,0.696 -0.695,0 -1.463,-0.168 -1.932,-0.48 l 0.264,-0.815 c 0.385,0.252 0.984,0.468 1.703,0.468 1.08,0 1.871,-0.564 1.871,-2.039 v -0.636 h -0.023 c -0.312,0.54 -0.947,0.972 -1.848,0.972 -1.438,0 -2.471,-1.224 -2.471,-2.831 0,-1.967 1.284,-3.07 2.627,-3.07 1.008,0 1.547,0.516 1.812,0.996 h 0.024 l 0.035,-0.875 h 0.936 c -0.036,0.408 -0.048,0.887 -0.048,1.583 v 3.368 z m -1.055,-2.663 c 0,-0.18 -0.012,-0.336 -0.06,-0.468 -0.192,-0.624 -0.696,-1.127 -1.476,-1.127 -1.008,0 -1.727,0.852 -1.727,2.195 0,1.14 0.588,2.087 1.715,2.087 0.66,0 1.247,-0.408 1.463,-1.079 0.061,-0.18 0.084,-0.384 0.084,-0.564 v -1.044 z"
   id="path480"
   inkscape:connector-curvature="0"
   style="fill:#ed1c24" />
<path
   d="m 530.46569,423.68036 c 0,-0.611 -0.012,-1.091 -0.048,-1.571 h 0.936 l 0.06,0.959 h 0.024 c 0.288,-0.54 0.96,-1.08 1.919,-1.08 0.803,0 2.051,0.48 2.051,2.471 v 3.454 h -1.056 v -3.346 c 0,-0.936 -0.348,-1.715 -1.343,-1.715 -0.684,0 -1.224,0.492 -1.416,1.079 -0.047,0.132 -0.071,0.312 -0.071,0.492 v 3.49 h -1.056 v -4.233 z"
   id="path482"
   inkscape:connector-curvature="0"
   style="fill:#ed1c24" />
<path
   d="m 537.71369,425.20436 c 0.023,1.427 0.923,2.015 1.99,2.015 0.756,0 1.223,-0.132 1.607,-0.3 l 0.191,0.756 c -0.371,0.168 -1.02,0.372 -1.943,0.372 -1.787,0 -2.854,-1.187 -2.854,-2.938 0,-1.751 1.031,-3.118 2.723,-3.118 1.906,0 2.398,1.655 2.398,2.723 0,0.216 -0.012,0.372 -0.036,0.492 h -4.076 z m 3.094,-0.756 c 0.012,-0.659 -0.275,-1.703 -1.463,-1.703 -1.08,0 -1.535,0.971 -1.619,1.703 h 3.082 z"
   id="path484"
   inkscape:connector-curvature="0"
   style="fill:#ed1c24" />
<path
   d="m 548.13969,419.39936 v 7.016 c 0,0.516 0.023,1.103 0.047,1.499 h -0.936 l -0.047,-1.007 h -0.037 c -0.312,0.647 -1.007,1.139 -1.955,1.139 -1.402,0 -2.494,-1.187 -2.494,-2.95 -0.012,-1.931 1.199,-3.106 2.603,-3.106 0.899,0 1.487,0.42 1.751,0.875 h 0.024 v -3.466 h 1.044 z m -1.044,5.073 c 0,-0.132 -0.013,-0.312 -0.048,-0.444 -0.156,-0.66 -0.732,-1.211 -1.523,-1.211 -1.092,0 -1.739,0.959 -1.739,2.231 0,1.175 0.588,2.146 1.716,2.146 0.707,0 1.354,-0.479 1.547,-1.259 0.035,-0.144 0.048,-0.288 0.048,-0.456 v -1.007 z"
   id="path486"
   inkscape:connector-curvature="0"
   style="fill:#ed1c24" />
<path
   d="m 552.44969,419.39936 h 1.044 v 3.646 h 0.023 c 0.372,-0.648 1.043,-1.056 1.979,-1.056 1.451,0 2.459,1.199 2.459,2.951 0,2.075 -1.319,3.106 -2.614,3.106 -0.84,0 -1.511,-0.324 -1.955,-1.079 h -0.024 l -0.06,0.947 h -0.899 c 0.023,-0.396 0.048,-0.983 0.048,-1.499 v -7.016 z m 1.044,6.189 c 0,0.132 0.012,0.264 0.047,0.384 0.192,0.731 0.816,1.235 1.584,1.235 1.115,0 1.763,-0.899 1.763,-2.231 0,-1.163 -0.6,-2.159 -1.739,-2.159 -0.707,0 -1.379,0.504 -1.595,1.295 -0.036,0.132 -0.06,0.276 -0.06,0.444 v 1.032 z"
   id="path488"
   inkscape:connector-curvature="0"
   style="fill:#ed1c24" />
<path
   d="m 559.57769,422.11036 1.26,3.43 c 0.144,0.384 0.287,0.839 0.383,1.187 h 0.024 c 0.108,-0.348 0.228,-0.792 0.372,-1.211 l 1.151,-3.406 h 1.115 l -1.583,4.138 c -0.756,1.991 -1.271,2.998 -1.991,3.634 -0.527,0.444 -1.031,0.624 -1.295,0.672 l -0.265,-0.875 c 0.265,-0.08 0.612,-0.252 0.924,-0.516 0.288,-0.228 0.636,-0.636 0.888,-1.176 0.048,-0.108 0.084,-0.192 0.084,-0.251 0,-0.06 -0.024,-0.144 -0.084,-0.276 l -2.135,-5.349 h 1.152 z"
   id="path490"
   inkscape:connector-curvature="0"
   style="fill:#ed1c24" />
<path
   d="m 568.73269,425.37236 -0.839,2.542 h -1.08 l 2.758,-8.083 h 1.248 l 2.758,8.083 h -1.115 l -0.863,-2.542 h -2.867 z m 2.663,-0.816 -0.805,-2.327 c -0.18,-0.527 -0.299,-1.007 -0.419,-1.475 h -0.024 c -0.119,0.468 -0.24,0.972 -0.408,1.463 l -0.791,2.339 h 2.447 z"
   id="path492"
   inkscape:connector-curvature="0"
   style="fill:#ed1c24" />
<path
   d="m 579.59069,419.39936 v 7.016 c 0,0.516 0.023,1.103 0.048,1.499 h -0.936 l -0.048,-1.007 h -0.036 c -0.312,0.647 -1.007,1.139 -1.955,1.139 -1.403,0 -2.495,-1.187 -2.495,-2.95 -0.012,-1.931 1.2,-3.106 2.604,-3.106 0.899,0 1.486,0.42 1.751,0.875 h 0.024 v -3.466 h 1.043 z m -1.043,5.073 c 0,-0.132 -0.013,-0.312 -0.049,-0.444 -0.156,-0.66 -0.731,-1.211 -1.523,-1.211 -1.091,0 -1.738,0.959 -1.738,2.231 0,1.175 0.588,2.146 1.715,2.146 0.707,0 1.355,-0.479 1.547,-1.259 0.036,-0.144 0.049,-0.288 0.049,-0.456 v -1.007 z"
   id="path494"
   inkscape:connector-curvature="0"
   style="fill:#ed1c24" />
<path
   d="m 585.43469,426.52336 c 0,0.503 0.023,0.995 0.084,1.391 h -0.947 l -0.084,-0.731 h -0.036 c -0.323,0.456 -0.947,0.863 -1.774,0.863 -1.176,0 -1.775,-0.828 -1.775,-1.667 0,-1.403 1.247,-2.171 3.49,-2.159 v -0.12 c 0,-0.468 -0.133,-1.343 -1.319,-1.331 -0.552,0 -1.116,0.156 -1.523,0.432 l -0.239,-0.708 c 0.479,-0.3 1.187,-0.504 1.918,-0.504 1.775,0 2.207,1.211 2.207,2.363 v 2.171 z m -1.02,-1.571 c -1.151,-0.02 -2.459,0.18 -2.459,1.307 0,0.696 0.457,1.008 0.984,1.008 0.768,0 1.259,-0.48 1.427,-0.972 0.036,-0.12 0.048,-0.24 0.048,-0.336 v -1.007 z"
   id="path496"
   inkscape:connector-curvature="0"
   style="fill:#ed1c24" />
<path
   d="m 587.24869,427.91436 v -5.001 h -0.804 v -0.803 h 0.804 v -0.276 c 0,-0.815 0.191,-1.559 0.672,-2.027 0.396,-0.384 0.924,-0.54 1.415,-0.54 0.384,0 0.696,0.08 0.899,0.168 l -0.145,0.816 c -0.155,-0.07 -0.359,-0.132 -0.671,-0.132 -0.899,0 -1.128,0.78 -1.128,1.679 v 0.312 h 1.404 v 0.803 h -1.404 v 5.001 h -1.042 z"
   id="path498"
   inkscape:connector-curvature="0"
   style="fill:#ed1c24" />
<path
   d="m 590.64569,423.92136 c 0,-0.684 -0.013,-1.271 -0.049,-1.811 h 0.924 l 0.048,1.151 h 0.036 c 0.264,-0.78 0.912,-1.271 1.619,-1.271 0.107,0 0.191,0.01 0.288,0.02 v 0.996 c -0.108,-0.02 -0.216,-0.02 -0.36,-0.02 -0.743,0 -1.271,0.552 -1.415,1.343 -0.024,0.144 -0.036,0.324 -0.036,0.492 v 3.094 h -1.055 v -3.994 z"
   id="path500"
   inkscape:connector-curvature="0"
   style="fill:#ed1c24" />
<path
   d="m 599.42669,426.31936 c 0,0.612 0.012,1.14 0.047,1.595 h -0.936 l -0.06,-0.947 h -0.024 c -0.264,0.467 -0.887,1.079 -1.918,1.079 -0.912,0 -2.004,-0.516 -2.004,-2.542 v -3.394 h 1.057 v 3.202 c 0,1.104 0.348,1.859 1.295,1.859 0.707,0 1.199,-0.492 1.391,-0.971 0.061,-0.144 0.096,-0.336 0.096,-0.54 v -3.55 h 1.057 v 4.209 z"
   id="path502"
   inkscape:connector-curvature="0"
   style="fill:#ed1c24" />
<path
   d="m 602.35669,420.47836 c 0,0.36 -0.252,0.648 -0.672,0.648 -0.383,0 -0.635,-0.288 -0.635,-0.648 0,-0.36 0.264,-0.66 0.659,-0.66 0.384,0 0.648,0.289 0.648,0.66 z m -1.176,7.436 v -5.805 h 1.057 v 5.805 h -1.057 z"
   id="path504"
   inkscape:connector-curvature="0"
   style="fill:#ed1c24" />
<path
   d="m 605.26069,420.71936 v 1.391 h 1.511 v 0.803 h -1.511 v 3.13 c 0,0.72 0.203,1.127 0.791,1.127 0.287,0 0.455,-0.02 0.611,-0.07 l 0.049,0.803 c -0.205,0.07 -0.528,0.144 -0.936,0.144 -0.492,0 -0.889,-0.168 -1.141,-0.444 -0.287,-0.324 -0.407,-0.839 -0.407,-1.523 v -3.167 h -0.899 v -0.803 h 0.899 v -1.08 l 1.033,-0.309 z"
   id="path506"
   inkscape:connector-curvature="0"
   style="fill:#ed1c24" />
<path
   d="m 611.58369,419.83136 v 8.083 h -1.056 v -8.083 h 1.056 z"
   id="path508"
   inkscape:connector-curvature="0"
   style="fill:#ed1c24" />
<path
   d="m 613.49369,423.68036 c 0,-0.611 -0.013,-1.091 -0.049,-1.571 h 0.936 l 0.061,0.959 h 0.023 c 0.288,-0.54 0.96,-1.08 1.92,-1.08 0.803,0 2.051,0.48 2.051,2.471 v 3.454 h -1.057 v -3.346 c 0,-0.936 -0.348,-1.715 -1.343,-1.715 -0.684,0 -1.224,0.492 -1.415,1.079 -0.048,0.132 -0.072,0.312 -0.072,0.492 v 3.49 h -1.055 v -4.233 z"
   id="path510"
   inkscape:connector-curvature="0"
   style="fill:#ed1c24" />
<path
   d="m 625.15369,419.39936 v 7.016 c 0,0.516 0.024,1.103 0.049,1.499 h -0.936 l -0.049,-1.007 h -0.035 c -0.312,0.647 -1.008,1.139 -1.955,1.139 -1.403,0 -2.495,-1.187 -2.495,-2.95 -0.012,-1.931 1.2,-3.106 2.603,-3.106 0.9,0 1.487,0.42 1.752,0.875 h 0.023 v -3.466 h 1.043 z m -1.043,5.073 c 0,-0.132 -0.012,-0.312 -0.049,-0.444 -0.155,-0.66 -0.73,-1.211 -1.522,-1.211 -1.091,0 -1.739,0.959 -1.739,2.231 0,1.175 0.588,2.146 1.715,2.146 0.708,0 1.355,-0.479 1.547,-1.259 0.037,-0.144 0.049,-0.288 0.049,-0.456 v -1.007 z"
   id="path512"
   inkscape:connector-curvature="0"
   style="fill:#ed1c24" />
<path
   d="m 631.77869,426.31936 c 0,0.612 0.012,1.14 0.047,1.595 h -0.936 l -0.06,-0.947 h -0.024 c -0.264,0.467 -0.887,1.079 -1.918,1.079 -0.912,0 -2.004,-0.516 -2.004,-2.542 v -3.394 h 1.057 v 3.202 c 0,1.104 0.348,1.859 1.295,1.859 0.707,0 1.199,-0.492 1.391,-0.971 0.061,-0.144 0.096,-0.336 0.096,-0.54 v -3.55 h 1.057 v 4.209 z"
   id="path514"
   inkscape:connector-curvature="0"
   style="fill:#ed1c24" />
<path
   d="m 633.38769,426.84736 c 0.324,0.192 0.876,0.408 1.404,0.408 0.756,0 1.115,-0.372 1.115,-0.863 0,-0.504 -0.301,-0.768 -1.068,-1.056 -1.055,-0.384 -1.547,-0.947 -1.547,-1.643 0,-0.936 0.768,-1.703 2.004,-1.703 0.587,0 1.103,0.156 1.414,0.36 l -0.252,0.768 c -0.227,-0.144 -0.646,-0.348 -1.187,-0.348 -0.624,0 -0.96,0.36 -0.96,0.792 0,0.479 0.336,0.695 1.092,0.996 0.995,0.372 1.523,0.875 1.523,1.739 0,1.031 -0.804,1.751 -2.159,1.751 -0.636,0 -1.224,-0.168 -1.631,-0.408 l 0.252,-0.793 z"
   id="path516"
   inkscape:connector-curvature="0"
   style="fill:#ed1c24" />
<path
   d="m 639.55569,420.71936 v 1.391 h 1.512 v 0.803 h -1.512 v 3.13 c 0,0.72 0.203,1.127 0.791,1.127 0.288,0 0.456,-0.02 0.612,-0.07 l 0.048,0.803 c -0.204,0.07 -0.527,0.144 -0.936,0.144 -0.492,0 -0.888,-0.168 -1.14,-0.444 -0.288,-0.324 -0.407,-0.839 -0.407,-1.523 v -3.167 h -0.9 v -0.803 h 0.9 v -1.08 l 1.032,-0.309 z"
   id="path518"
   inkscape:connector-curvature="0"
   style="fill:#ed1c24" />
<path
   d="m 642.25669,423.92136 c 0,-0.684 -0.013,-1.271 -0.049,-1.811 h 0.924 l 0.048,1.151 h 0.036 c 0.264,-0.78 0.912,-1.271 1.619,-1.271 0.107,0 0.191,0.01 0.288,0.02 v 0.996 c -0.108,-0.02 -0.216,-0.02 -0.36,-0.02 -0.743,0 -1.271,0.552 -1.415,1.343 -0.024,0.144 -0.036,0.324 -0.036,0.492 v 3.094 h -1.055 v -3.994 z"
   id="path520"
   inkscape:connector-curvature="0"
   style="fill:#ed1c24" />
<path
   d="m 647.40369,420.47836 c 0,0.36 -0.252,0.648 -0.672,0.648 -0.383,0 -0.635,-0.288 -0.635,-0.648 0,-0.36 0.264,-0.66 0.659,-0.66 0.384,0 0.648,0.289 0.648,0.66 z m -1.176,7.436 v -5.805 h 1.057 v 5.805 h -1.057 z"
   id="path522"
   inkscape:connector-curvature="0"
   style="fill:#ed1c24" />
<path
   d="m 649.62369,425.20436 c 0.023,1.427 0.924,2.015 1.99,2.015 0.756,0 1.224,-0.132 1.607,-0.3 l 0.191,0.756 c -0.371,0.168 -1.019,0.372 -1.942,0.372 -1.787,0 -2.854,-1.187 -2.854,-2.938 0,-1.751 1.031,-3.118 2.723,-3.118 1.907,0 2.398,1.655 2.398,2.723 0,0.216 -0.012,0.372 -0.035,0.492 h -4.078 z m 3.094,-0.756 c 0.012,-0.659 -0.275,-1.703 -1.463,-1.703 -1.079,0 -1.535,0.971 -1.619,1.703 h 3.082 z"
   id="path524"
   inkscape:connector-curvature="0"
   style="fill:#ed1c24" />
<path
   d="m 654.90369,426.84736 c 0.324,0.192 0.876,0.408 1.404,0.408 0.756,0 1.115,-0.372 1.115,-0.863 0,-0.504 -0.301,-0.768 -1.068,-1.056 -1.055,-0.384 -1.547,-0.947 -1.547,-1.643 0,-0.936 0.768,-1.703 2.004,-1.703 0.587,0 1.103,0.156 1.414,0.36 l -0.252,0.768 c -0.227,-0.144 -0.646,-0.348 -1.187,-0.348 -0.624,0 -0.96,0.36 -0.96,0.792 0,0.479 0.336,0.695 1.092,0.996 0.995,0.372 1.523,0.875 1.523,1.739 0,1.031 -0.804,1.751 -2.159,1.751 -0.636,0 -1.224,-0.168 -1.631,-0.408 l 0.252,-0.793 z"
   id="path526"
   inkscape:connector-curvature="0"
   style="fill:#ed1c24" />
<path
   d="m 658.98469,429.40236 c 0.264,-0.72 0.588,-2.003 0.72,-2.878 l 1.176,-0.12 c -0.289,1.02 -0.816,2.351 -1.152,2.915 l -0.744,0.08 z"
   id="path528"
   inkscape:connector-curvature="0"
   style="fill:#ed1c24" />
<path
   d="m 664.71969,419.83136 h 1.056 v 7.208 h 3.454 v 0.875 h -4.51 v -8.083 z"
   id="path530"
   inkscape:connector-curvature="0"
   style="fill:#ed1c24" />
<path
   d="m 670.38369,419.83136 h 1.056 v 7.208 h 3.454 v 0.875 h -4.51 v -8.083 z"
   id="path532"
   inkscape:connector-curvature="0"
   style="fill:#ed1c24" />
<path
   d="m 681.22869,427.66236 c -0.372,0.192 -1.151,0.384 -2.135,0.384 -2.278,0 -3.981,-1.439 -3.981,-4.102 0,-2.542 1.715,-4.246 4.221,-4.246 0.996,0 1.644,0.216 1.92,0.36 l -0.264,0.851 c -0.385,-0.191 -0.948,-0.335 -1.619,-0.335 -1.896,0 -3.154,1.211 -3.154,3.334 0,1.991 1.139,3.25 3.094,3.25 0.647,0 1.295,-0.132 1.715,-0.336 l 0.203,0.84 z"
   id="path534"
   inkscape:connector-curvature="0"
   style="fill:#ed1c24" />
<path
   d="m 682.26369,427.29136 c 0,-0.432 0.3,-0.756 0.72,-0.756 0.42,0 0.707,0.312 0.707,0.756 0,0.432 -0.287,0.755 -0.73,0.755 -0.409,0 -0.697,-0.324 -0.697,-0.755 z"
   id="path536"
   inkscape:connector-curvature="0"
   style="fill:#ed1c24" />
<path
   d="m 503.56169,439.77236 -0.84,2.542 h -1.079 l 2.759,-8.083 h 1.247 l 2.759,8.083 h -1.115 l -0.864,-2.542 h -2.867 z m 2.662,-0.816 -0.803,-2.327 c -0.18,-0.527 -0.301,-1.007 -0.42,-1.475 h -0.024 c -0.12,0.468 -0.239,0.972 -0.407,1.463 l -0.792,2.338 h 2.446 z"
   id="path538"
   inkscape:connector-curvature="0"
   style="fill:#ed1c24" />
<path
   d="m 509.52669,433.79936 h 1.056 v 8.515 h -1.056 v -8.515 z"
   id="path540"
   inkscape:connector-curvature="0"
   style="fill:#ed1c24" />
<path
   d="m 512.35869,433.79936 h 1.056 v 8.515 h -1.056 v -8.515 z"
   id="path542"
   inkscape:connector-curvature="0"
   style="fill:#ed1c24" />
<path
   d="m 517.73369,438.32136 c 0,-0.684 -0.012,-1.271 -0.047,-1.811 h 0.923 l 0.048,1.151 h 0.036 c 0.264,-0.78 0.911,-1.271 1.619,-1.271 0.108,0 0.192,0.01 0.288,0.02 v 0.996 c -0.108,-0.02 -0.217,-0.02 -0.359,-0.02 -0.744,0 -1.271,0.552 -1.416,1.343 -0.023,0.144 -0.035,0.324 -0.035,0.492 v 3.094 h -1.057 v -3.994 z"
   id="path544"
   inkscape:connector-curvature="0"
   style="fill:#ed1c24" />
<path
   d="m 522.12569,439.60436 c 0.023,1.427 0.924,2.015 1.99,2.015 0.756,0 1.224,-0.132 1.607,-0.3 l 0.191,0.756 c -0.371,0.168 -1.019,0.372 -1.942,0.372 -1.787,0 -2.854,-1.188 -2.854,-2.938 0,-1.75 1.031,-3.118 2.723,-3.118 1.907,0 2.398,1.655 2.398,2.723 0,0.216 -0.012,0.372 -0.035,0.492 h -4.078 z m 3.094,-0.756 c 0.012,-0.66 -0.275,-1.703 -1.463,-1.703 -1.079,0 -1.535,0.971 -1.619,1.703 h 3.082 z"
   id="path546"
   inkscape:connector-curvature="0"
   style="fill:#ed1c24" />
<path
   d="m 527.54969,438.40536 c 0,-0.744 -0.023,-1.343 -0.048,-1.895 h 0.936 l 0.06,0.995 h 0.024 c 0.419,-0.708 1.115,-1.115 2.062,-1.115 1.415,0 2.471,1.188 2.471,2.938 0,2.087 -1.283,3.118 -2.65,3.118 -0.768,0 -1.439,-0.336 -1.787,-0.912 h -0.024 v 3.154 h -1.043 v -6.283 z m 1.043,1.546 c 0,0.156 0.013,0.3 0.049,0.432 0.191,0.732 0.827,1.235 1.583,1.235 1.115,0 1.763,-0.911 1.763,-2.243 0,-1.151 -0.611,-2.146 -1.727,-2.146 -0.721,0 -1.404,0.503 -1.596,1.295 -0.035,0.132 -0.072,0.288 -0.072,0.42 v 1.007 z"
   id="path548"
   inkscape:connector-curvature="0"
   style="fill:#ed1c24" />
<path
   d="m 534.37769,438.32136 c 0,-0.684 -0.012,-1.271 -0.048,-1.811 h 0.923 l 0.049,1.151 h 0.035 c 0.264,-0.78 0.912,-1.271 1.619,-1.271 0.108,0 0.192,0.01 0.288,0.02 v 0.996 c -0.108,-0.02 -0.216,-0.02 -0.359,-0.02 -0.743,0 -1.271,0.552 -1.415,1.343 -0.024,0.144 -0.036,0.324 -0.036,0.492 v 3.094 h -1.056 v -3.994 z"
   id="path550"
   inkscape:connector-curvature="0"
   style="fill:#ed1c24" />
<path
   d="m 543.43469,439.36436 c 0,2.146 -1.499,3.082 -2.891,3.082 -1.559,0 -2.782,-1.151 -2.782,-2.986 0,-1.931 1.284,-3.07 2.878,-3.07 1.668,0 2.795,1.211 2.795,2.974 z m -4.594,0.06 c 0,1.271 0.721,2.231 1.752,2.231 1.007,0 1.763,-0.947 1.763,-2.255 0,-0.983 -0.491,-2.219 -1.739,-2.219 -1.236,0 -1.776,1.151 -1.776,2.243 z"
   id="path552"
   inkscape:connector-curvature="0"
   style="fill:#ed1c24" />
<path
   d="m 549.77169,433.79936 v 7.016 c 0,0.516 0.024,1.103 0.048,1.499 h -0.936 l -0.048,-1.007 h -0.036 c -0.312,0.647 -1.008,1.139 -1.955,1.139 -1.402,0 -2.494,-1.188 -2.494,-2.95 -0.012,-1.931 1.199,-3.106 2.602,-3.106 0.9,0 1.488,0.42 1.752,0.875 h 0.023 v -3.466 h 1.044 z m -1.044,5.073 c 0,-0.132 -0.012,-0.312 -0.048,-0.444 -0.155,-0.66 -0.731,-1.211 -1.522,-1.211 -1.092,0 -1.74,0.959 -1.74,2.231 0,1.175 0.588,2.146 1.716,2.146 0.708,0 1.354,-0.479 1.547,-1.259 0.036,-0.144 0.048,-0.288 0.048,-0.456 v -1.007 z"
   id="path554"
   inkscape:connector-curvature="0"
   style="fill:#ed1c24" />
<path
   d="m 556.39569,440.71936 c 0,0.612 0.012,1.14 0.047,1.595 h -0.936 l -0.06,-0.947 h -0.024 c -0.264,0.468 -0.887,1.079 -1.918,1.079 -0.912,0 -2.004,-0.516 -2.004,-2.542 v -3.394 h 1.057 v 3.202 c 0,1.104 0.348,1.859 1.295,1.859 0.707,0 1.199,-0.492 1.391,-0.971 0.061,-0.144 0.096,-0.336 0.096,-0.54 v -3.55 h 1.057 v 4.209 z"
   id="path556"
   inkscape:connector-curvature="0"
   style="fill:#ed1c24" />
<path
   d="m 562.28869,442.11036 c -0.276,0.132 -0.888,0.336 -1.668,0.336 -1.75,0 -2.891,-1.188 -2.891,-2.962 0,-1.787 1.225,-3.094 3.119,-3.094 0.623,0 1.176,0.156 1.463,0.312 l -0.24,0.803 c -0.252,-0.132 -0.646,-0.275 -1.223,-0.275 -1.332,0 -2.051,0.995 -2.051,2.194 0,1.343 0.863,2.171 2.015,2.171 0.6,0 0.995,-0.144 1.296,-0.276 l 0.18,0.791 z"
   id="path558"
   inkscape:connector-curvature="0"
   style="fill:#ed1c24" />
<path
   d="m 564.95369,435.11836 v 1.392 h 1.511 v 0.803 h -1.511 v 3.13 c 0,0.72 0.204,1.127 0.792,1.127 0.287,0 0.455,-0.02 0.611,-0.07 l 0.048,0.803 c -0.204,0.07 -0.528,0.144 -0.936,0.144 -0.491,0 -0.888,-0.168 -1.14,-0.444 -0.287,-0.324 -0.408,-0.839 -0.408,-1.523 v -3.167 h -0.898 v -0.803 h 0.898 v -1.08 l 1.033,-0.31 z"
   id="path560"
   inkscape:connector-curvature="0"
   style="fill:#ed1c24" />
<path
   d="m 568.82969,434.87836 c 0,0.36 -0.252,0.648 -0.672,0.648 -0.384,0 -0.636,-0.288 -0.636,-0.648 0,-0.36 0.264,-0.66 0.659,-0.66 0.385,0 0.649,0.289 0.649,0.66 z m -1.176,7.436 v -5.805 h 1.056 v 5.805 h -1.056 z"
   id="path562"
   inkscape:connector-curvature="0"
   style="fill:#ed1c24" />
<path
   d="m 575.71369,439.36436 c 0,2.146 -1.498,3.082 -2.89,3.082 -1.56,0 -2.782,-1.151 -2.782,-2.986 0,-1.931 1.283,-3.07 2.878,-3.07 1.667,0 2.794,1.211 2.794,2.974 z m -4.592,0.06 c 0,1.271 0.72,2.231 1.751,2.231 1.008,0 1.764,-0.947 1.764,-2.255 0,-0.983 -0.492,-2.219 -1.74,-2.219 -1.235,0 -1.775,1.151 -1.775,2.243 z"
   id="path564"
   inkscape:connector-curvature="0"
   style="fill:#ed1c24" />
<path
   d="m 577.04969,438.08036 c 0,-0.611 -0.013,-1.091 -0.049,-1.571 h 0.936 l 0.061,0.959 h 0.023 c 0.288,-0.54 0.96,-1.08 1.92,-1.08 0.803,0 2.051,0.48 2.051,2.471 v 3.454 h -1.057 v -3.346 c 0,-0.936 -0.348,-1.715 -1.343,-1.715 -0.684,0 -1.224,0.492 -1.415,1.079 -0.048,0.132 -0.072,0.312 -0.072,0.492 v 3.49 h -1.055 v -4.233 z"
   id="path566"
   inkscape:connector-curvature="0"
   style="fill:#ed1c24" />
<path
   d="m 583.56569,441.24736 c 0.323,0.192 0.875,0.408 1.402,0.408 0.756,0 1.115,-0.372 1.115,-0.863 0,-0.504 -0.299,-0.768 -1.066,-1.056 -1.056,-0.384 -1.547,-0.947 -1.547,-1.643 0,-0.936 0.768,-1.703 2.002,-1.703 0.588,0 1.104,0.156 1.416,0.36 l -0.252,0.768 c -0.229,-0.144 -0.648,-0.348 -1.188,-0.348 -0.624,0 -0.959,0.36 -0.959,0.792 0,0.479 0.335,0.695 1.091,0.995 0.995,0.372 1.522,0.876 1.522,1.739 0,1.031 -0.803,1.751 -2.158,1.751 -0.636,0 -1.223,-0.168 -1.631,-0.408 l 0.253,-0.792 z"
   id="path568"
   inkscape:connector-curvature="0"
   style="fill:#ed1c24" />
<path
   d="m 591.00469,438.08036 c 0,-0.611 -0.023,-1.091 -0.048,-1.571 h 0.923 l 0.049,0.947 h 0.035 c 0.324,-0.552 0.864,-1.067 1.836,-1.067 0.779,0 1.379,0.48 1.631,1.164 h 0.023 c 0.18,-0.336 0.42,-0.576 0.66,-0.756 0.348,-0.264 0.719,-0.408 1.271,-0.408 0.779,0 1.918,0.504 1.918,2.519 v 3.406 h -1.031 v -3.274 c 0,-1.127 -0.42,-1.787 -1.259,-1.787 -0.612,0 -1.067,0.443 -1.259,0.947 -0.049,0.156 -0.084,0.336 -0.084,0.528 v 3.586 h -1.032 v -3.478 c 0,-0.923 -0.407,-1.583 -1.211,-1.583 -0.647,0 -1.14,0.527 -1.308,1.055 -0.06,0.144 -0.084,0.336 -0.084,0.516 v 3.49 h -1.031 v -4.234 z"
   id="path570"
   inkscape:connector-curvature="0"
   style="fill:#ed1c24" />
<path
   d="m 605.87069,440.71936 c 0,0.612 0.012,1.14 0.049,1.595 h -0.936 l -0.061,-0.947 h -0.023 c -0.264,0.468 -0.888,1.079 -1.92,1.079 -0.91,0 -2.002,-0.516 -2.002,-2.542 v -3.394 h 1.055 v 3.202 c 0,1.104 0.348,1.859 1.296,1.859 0.708,0 1.199,-0.492 1.392,-0.971 0.06,-0.144 0.096,-0.336 0.096,-0.54 v -3.55 h 1.055 v 4.209 z"
   id="path572"
   inkscape:connector-curvature="0"
   style="fill:#ed1c24" />
<path
   d="m 607.48169,441.24736 c 0.323,0.192 0.875,0.408 1.402,0.408 0.756,0 1.115,-0.372 1.115,-0.863 0,-0.504 -0.299,-0.768 -1.066,-1.056 -1.056,-0.384 -1.547,-0.947 -1.547,-1.643 0,-0.936 0.768,-1.703 2.002,-1.703 0.588,0 1.104,0.156 1.416,0.36 l -0.252,0.768 c -0.229,-0.144 -0.648,-0.348 -1.188,-0.348 -0.624,0 -0.959,0.36 -0.959,0.792 0,0.479 0.335,0.695 1.091,0.995 0.995,0.372 1.522,0.876 1.522,1.739 0,1.031 -0.803,1.751 -2.158,1.751 -0.636,0 -1.223,-0.168 -1.631,-0.408 l 0.253,-0.792 z"
   id="path574"
   inkscape:connector-curvature="0"
   style="fill:#ed1c24" />
<path
   d="m 613.64869,435.11836 v 1.392 h 1.511 v 0.803 h -1.511 v 3.13 c 0,0.72 0.204,1.127 0.792,1.127 0.287,0 0.455,-0.02 0.611,-0.07 l 0.048,0.803 c -0.204,0.07 -0.528,0.144 -0.936,0.144 -0.491,0 -0.888,-0.168 -1.14,-0.444 -0.287,-0.324 -0.408,-0.839 -0.408,-1.523 v -3.167 h -0.898 v -0.803 h 0.898 v -1.08 l 1.033,-0.31 z"
   id="path576"
   inkscape:connector-curvature="0"
   style="fill:#ed1c24" />
<path
   d="m 620.06769,434.87836 c 0,0.36 -0.252,0.648 -0.671,0.648 -0.384,0 -0.636,-0.288 -0.636,-0.648 0,-0.36 0.264,-0.66 0.66,-0.66 0.383,0 0.647,0.289 0.647,0.66 z m -1.175,7.436 v -5.805 h 1.056 v 5.805 h -1.056 z"
   id="path578"
   inkscape:connector-curvature="0"
   style="fill:#ed1c24" />
<path
   d="m 621.70069,438.08036 c 0,-0.611 -0.012,-1.091 -0.047,-1.571 h 0.936 l 0.06,0.959 h 0.024 c 0.287,-0.54 0.959,-1.08 1.918,-1.08 0.804,0 2.051,0.48 2.051,2.471 v 3.454 h -1.055 v -3.346 c 0,-0.936 -0.348,-1.715 -1.344,-1.715 -0.684,0 -1.223,0.492 -1.415,1.079 -0.048,0.132 -0.071,0.312 -0.071,0.492 v 3.49 h -1.057 v -4.233 z"
   id="path580"
   inkscape:connector-curvature="0"
   style="fill:#ed1c24" />
<path
   d="m 632.49769,442.11036 c -0.276,0.132 -0.888,0.336 -1.667,0.336 -1.751,0 -2.891,-1.188 -2.891,-2.962 0,-1.787 1.224,-3.094 3.119,-3.094 0.623,0 1.175,0.156 1.463,0.312 l -0.24,0.803 c -0.252,-0.132 -0.647,-0.275 -1.223,-0.275 -1.332,0 -2.052,0.995 -2.052,2.194 0,1.343 0.864,2.171 2.015,2.171 0.6,0 0.996,-0.144 1.296,-0.276 l 0.18,0.791 z"
   id="path582"
   inkscape:connector-curvature="0"
   style="fill:#ed1c24" />
<path
   d="m 633.73669,433.79936 h 1.056 v 8.515 h -1.056 v -8.515 z"
   id="path584"
   inkscape:connector-curvature="0"
   style="fill:#ed1c24" />
<path
   d="m 641.42569,440.71936 c 0,0.612 0.012,1.14 0.048,1.595 h -0.936 l -0.061,-0.947 h -0.023 c -0.264,0.468 -0.887,1.079 -1.919,1.079 -0.911,0 -2.003,-0.516 -2.003,-2.542 v -3.394 h 1.056 v 3.202 c 0,1.104 0.348,1.859 1.296,1.859 0.707,0 1.199,-0.492 1.391,-0.971 0.061,-0.144 0.096,-0.336 0.096,-0.54 v -3.55 h 1.056 v 4.209 z"
   id="path586"
   inkscape:connector-curvature="0"
   style="fill:#ed1c24" />
<path
   d="m 648.18169,433.79936 v 7.016 c 0,0.516 0.024,1.103 0.048,1.499 h -0.936 l -0.048,-1.007 h -0.036 c -0.312,0.647 -1.008,1.139 -1.955,1.139 -1.402,0 -2.494,-1.188 -2.494,-2.95 -0.012,-1.931 1.199,-3.106 2.602,-3.106 0.9,0 1.488,0.42 1.752,0.875 h 0.023 v -3.466 h 1.044 z m -1.044,5.073 c 0,-0.132 -0.012,-0.312 -0.048,-0.444 -0.155,-0.66 -0.731,-1.211 -1.522,-1.211 -1.092,0 -1.74,0.959 -1.74,2.231 0,1.175 0.588,2.146 1.716,2.146 0.708,0 1.354,-0.479 1.547,-1.259 0.036,-0.144 0.048,-0.288 0.048,-0.456 v -1.007 z"
   id="path588"
   inkscape:connector-curvature="0"
   style="fill:#ed1c24" />
<path
   d="m 650.53669,439.60436 c 0.023,1.427 0.924,2.015 1.99,2.015 0.756,0 1.224,-0.132 1.607,-0.3 l 0.191,0.756 c -0.371,0.168 -1.019,0.372 -1.942,0.372 -1.787,0 -2.854,-1.188 -2.854,-2.938 0,-1.75 1.031,-3.118 2.723,-3.118 1.907,0 2.398,1.655 2.398,2.723 0,0.216 -0.012,0.372 -0.035,0.492 h -4.078 z m 3.093,-0.756 c 0.012,-0.66 -0.275,-1.703 -1.463,-1.703 -1.079,0 -1.535,0.971 -1.619,1.703 h 3.082 z"
   id="path590"
   inkscape:connector-curvature="0"
   style="fill:#ed1c24" />
<path
   d="m 659.77569,435.11836 v 1.392 h 1.511 v 0.803 h -1.511 v 3.13 c 0,0.72 0.204,1.127 0.792,1.127 0.287,0 0.455,-0.02 0.611,-0.07 l 0.048,0.803 c -0.204,0.07 -0.528,0.144 -0.936,0.144 -0.491,0 -0.888,-0.168 -1.14,-0.444 -0.287,-0.324 -0.408,-0.839 -0.408,-1.523 v -3.167 h -0.898 v -0.803 h 0.898 v -1.08 l 1.033,-0.31 z"
   id="path592"
   inkscape:connector-curvature="0"
   style="fill:#ed1c24" />
<path
   d="m 662.47569,433.79936 h 1.057 v 3.634 h 0.023 c 0.168,-0.3 0.432,-0.576 0.756,-0.755 0.312,-0.18 0.684,-0.288 1.079,-0.288 0.779,0 2.026,0.48 2.026,2.471 v 3.454 h -1.055 v -3.334 c 0,-0.936 -0.348,-1.715 -1.344,-1.715 -0.684,0 -1.211,0.48 -1.415,1.043 -0.06,0.156 -0.071,0.312 -0.071,0.504 v 3.502 h -1.057 v -8.516 z"
   id="path594"
   inkscape:connector-curvature="0"
   style="fill:#ed1c24" />
<path
   d="m 670.31169,434.87836 c 0,0.36 -0.252,0.648 -0.672,0.648 -0.384,0 -0.636,-0.288 -0.636,-0.648 0,-0.36 0.264,-0.66 0.659,-0.66 0.385,0 0.649,0.289 0.649,0.66 z m -1.176,7.436 v -5.805 h 1.056 v 5.805 h -1.056 z"
   id="path596"
   inkscape:connector-curvature="0"
   style="fill:#ed1c24" />
<path
   d="m 671.79969,441.24736 c 0.324,0.192 0.875,0.408 1.403,0.408 0.756,0 1.115,-0.372 1.115,-0.863 0,-0.504 -0.3,-0.768 -1.067,-1.056 -1.055,-0.384 -1.547,-0.947 -1.547,-1.643 0,-0.936 0.768,-1.703 2.003,-1.703 0.587,0 1.104,0.156 1.415,0.36 l -0.252,0.768 c -0.228,-0.144 -0.647,-0.348 -1.188,-0.348 -0.623,0 -0.959,0.36 -0.959,0.792 0,0.479 0.336,0.695 1.092,0.995 0.995,0.372 1.522,0.876 1.522,1.739 0,1.031 -0.804,1.751 -2.159,1.751 -0.635,0 -1.223,-0.168 -1.631,-0.408 l 0.253,-0.792 z"
   id="path598"
   inkscape:connector-curvature="0"
   style="fill:#ed1c24" />
<path
   d="m 680.51069,435.11836 v 1.392 h 1.512 v 0.803 h -1.512 v 3.13 c 0,0.72 0.204,1.127 0.792,1.127 0.288,0 0.456,-0.02 0.611,-0.07 l 0.048,0.803 c -0.203,0.07 -0.527,0.144 -0.936,0.144 -0.491,0 -0.887,-0.168 -1.139,-0.444 -0.288,-0.324 -0.408,-0.839 -0.408,-1.523 v -3.167 h -0.899 v -0.803 h 0.899 v -1.08 l 1.032,-0.31 z"
   id="path600"
   inkscape:connector-curvature="0"
   style="fill:#ed1c24" />
<path
   d="m 683.72769,439.60436 c 0.023,1.427 0.924,2.015 1.99,2.015 0.756,0 1.224,-0.132 1.607,-0.3 l 0.191,0.756 c -0.371,0.168 -1.019,0.372 -1.942,0.372 -1.787,0 -2.854,-1.188 -2.854,-2.938 0,-1.75 1.031,-3.118 2.723,-3.118 1.907,0 2.398,1.655 2.398,2.723 0,0.216 -0.012,0.372 -0.035,0.492 h -4.078 z m 3.094,-0.756 c 0.012,-0.66 -0.275,-1.703 -1.463,-1.703 -1.079,0 -1.535,0.971 -1.619,1.703 h 3.082 z"
   id="path602"
   inkscape:connector-curvature="0"
   style="fill:#ed1c24" />
<path
   d="m 689.60769,436.51036 0.827,1.247 c 0.229,0.324 0.408,0.612 0.6,0.936 h 0.024 c 0.192,-0.336 0.384,-0.636 0.588,-0.947 l 0.804,-1.235 h 1.15 l -1.979,2.806 2.027,2.999 h -1.188 l -0.863,-1.307 c -0.229,-0.336 -0.42,-0.66 -0.624,-1.008 h -0.024 c -0.191,0.348 -0.383,0.66 -0.611,1.008 l -0.84,1.307 h -1.163 l 2.063,-2.962 -1.967,-2.842 h 1.176 z"
   id="path604"
   inkscape:connector-curvature="0"
   style="fill:#ed1c24" />
<path
   d="m 696.09869,435.11836 v 1.392 h 1.512 v 0.803 h -1.512 v 3.13 c 0,0.72 0.204,1.127 0.792,1.127 0.288,0 0.456,-0.02 0.611,-0.07 l 0.048,0.803 c -0.203,0.07 -0.527,0.144 -0.936,0.144 -0.491,0 -0.887,-0.168 -1.139,-0.444 -0.288,-0.324 -0.408,-0.839 -0.408,-1.523 v -3.167 h -0.899 v -0.803 h 0.899 v -1.08 l 1.032,-0.31 z"
   id="path606"
   inkscape:connector-curvature="0"
   style="fill:#ed1c24" />
<path
   d="m 698.51169,441.69136 c 0,-0.432 0.3,-0.756 0.72,-0.756 0.42,0 0.707,0.312 0.707,0.756 0,0.432 -0.287,0.755 -0.73,0.755 -0.409,0 -0.697,-0.324 -0.697,-0.755 z"
   id="path608"
   inkscape:connector-curvature="0"
   style="fill:#ed1c24" />
<path
   sodipodi:nodetypes="sscssssccsssscsssscssssccsssscsss"
   style="fill:none;stroke:#000000;stroke-width:1"
   inkscape:connector-curvature="0"
   id="path4369"
   d="m 1099.0466,630.42576 c 0,2.45552 -1.5484,4.44819 -3.4554,4.44819 l -66.533,0 0,6.22593 c 0,2.45553 -1.5485,4.4482 -3.4555,4.4482 l -34.56135,0 c -1.90937,0 -3.45784,-1.99267 -3.45784,-4.4482 l 0,-6.22593 -81.21917,0 0,6.09884 c 0,2.45553 -1.54847,4.4482 -3.45541,4.4482 l -34.56383,0 c -1.90694,0 -3.45541,-1.99267 -3.45541,-4.4482 l 0,-6.09884 -66.53063,0 c -1.90937,0 -3.45784,-1.99267 -3.45784,-4.44819 l 0,-242.39809 c 0,-2.45396 1.54847,-4.44664 3.45784,-4.44664 l 66.53063,0 0,-6.52447 c 0,-2.45397 1.54847,-4.44663 3.45541,-4.44663 l 34.56383,0 c 1.90694,0 3.45541,1.99266 3.45541,4.44663 l 0,6.52447 81.21917,0 0,-6.60877 c 0,-2.45397 1.54847,-4.44663 3.45784,-4.44663 l 34.56135,0 c 1.907,0 3.4555,1.99266 3.4555,4.44663 l 0,6.60877 66.533,0 c 1.907,0 3.4554,1.99268 3.4554,4.44664 z" /><rect
   y="389.14197"
   x="800.72571"
   height="239.17323"
   width="292.32285"
   id="rect4593"
   style="fill:none;stroke:#076bfa;stroke-width:1.20000005000000010;stroke-linecap:round;stroke-linejoin:round;stroke-miterlimit:4;stroke-opacity:1;stroke-dasharray:none" /><path
   style="fill:none;stroke:#0a050c;stroke-width:1.20000005;stroke-linecap:round;stroke-linejoin:round;stroke-miterlimit:4;stroke-opacity:1"
   d="m 812.91144,406.79654 261.46146,0 0,99.17795 -261.46146,0 z"
   id="rect4599"
   inkscape:connector-curvature="0"
   sodipodi:nodetypes="ccccc" /><path
   style="fill:none;stroke:#d607fa;stroke-width:1.20000005;stroke-linecap:round;stroke-linejoin:round;stroke-miterlimit:4;stroke-opacity:1;stroke-dasharray:none"
   d="m 1056.9215,609.15106 35.4511,0 0,0 0,0 0,0"
   id="path4607"
   inkscape:connector-curvature="0" /><path
   inkscape:connector-curvature="0"
   id="path4609"
   d="m 1073.9822,627.61237 0,-32.49744 0,0 0,0 0,0"
   style="fill:none;stroke:#d607fa;stroke-width:1.20000005;stroke-linecap:round;stroke-linejoin:round;stroke-miterlimit:4;stroke-opacity:1;stroke-dasharray:none" /><path
   sodipodi:type="arc"
   style="fill:none;stroke:#040305;stroke-width:1.05115283;stroke-linecap:round;stroke-linejoin:round;stroke-miterlimit:4;stroke-opacity:1;stroke-dasharray:none"
   id="path4611"
   sodipodi:cx="1202.7374"
   sodipodi:cy="719.29901"
   sodipodi:rx="10.632402"
   sodipodi:ry="10.632402"
   d="m 1213.3698,719.29901 a 10.632402,10.632402 0 1 1 -21.2648,0 10.632402,10.632402 0 1 1 21.2648,0 z"
   transform="matrix(1.1416037,0,0,1.1416037,-309.28685,-220.27578)" /><path
   style="fill:none;stroke:#040305;stroke-width:1.19999993;stroke-linecap:round;stroke-linejoin:round;stroke-miterlimit:4;stroke-opacity:1"
   d="m 993.15625,643.125 0,51.1875 -43.8125,0 0,47.3125 136.96875,0 0,-47.3125 -45.7813,0 0,-51.1875 z"
   transform="translate(-142.884,-121.767)"
   id="rect4615"
   inkscape:connector-curvature="0"
   sodipodi:nodetypes="ccccccccc" /><path
   sodipodi:type="arc"
   style="fill:none;stroke:#040305;stroke-width:2.60800719;stroke-linecap:round;stroke-linejoin:round;stroke-miterlimit:4;stroke-opacity:1;stroke-dasharray:none"
   id="path4632"
   sodipodi:cx="1005.4321"
   sodipodi:cy="443.28125"
   sodipodi:rx="10.24721"
   sodipodi:ry="10.24721"
   d="m 1015.6793,443.28125 a 10.24721,10.24721 0 1 1 -20.49438,0 10.24721,10.24721 0 1 1 20.49438,0 z"
   transform="matrix(0.46012142,0,0,0.46012142,295.95678,301.98774)" /><path
   transform="matrix(0.46012142,0,0,0.46012142,295.95678,195.27281)"
   d="m 1015.6793,443.28125 a 10.24721,10.24721 0 1 1 -20.49438,0 10.24721,10.24721 0 1 1 20.49438,0 z"
   sodipodi:ry="10.24721"
   sodipodi:rx="10.24721"
   sodipodi:cy="443.28125"
   sodipodi:cx="1005.4321"
   id="path4634"
   style="fill:none;stroke:#040305;stroke-width:2.60800719;stroke-linecap:round;stroke-linejoin:round;stroke-miterlimit:4;stroke-opacity:1;stroke-dasharray:none"
   sodipodi:type="arc" /><path
   transform="matrix(0.46012142,0,0,0.46012142,29.797198,301.98774)"
   d="m 1015.6793,443.28125 a 10.24721,10.24721 0 1 1 -20.49438,0 10.24721,10.24721 0 1 1 20.49438,0 z"
   sodipodi:ry="10.24721"
   sodipodi:rx="10.24721"
   sodipodi:cy="443.28125"
   sodipodi:cx="1005.4321"
   id="path4636"
   style="fill:none;stroke:#040305;stroke-width:2.60800719;stroke-linecap:round;stroke-linejoin:round;stroke-miterlimit:4;stroke-opacity:1;stroke-dasharray:none"
   sodipodi:type="arc" /><path
   sodipodi:type="arc"
   style="fill:none;stroke:#040305;stroke-width:2.60800719;stroke-linecap:round;stroke-linejoin:round;stroke-miterlimit:4;stroke-opacity:1;stroke-dasharray:none"
   id="path4638"
   sodipodi:cx="1005.4321"
   sodipodi:cy="443.28125"
   sodipodi:rx="10.24721"
   sodipodi:ry="10.24721"
   d="m 1015.6793,443.28125 a 10.24721,10.24721 0 1 1 -20.49438,0 10.24721,10.24721 0 1 1 20.49438,0 z"
   transform="matrix(0.46012142,0,0,0.46012142,29.797198,195.27281)" /><path
   transform="matrix(0.46012142,0,0,0.46012142,275.00861,365.27949)"
   d="m 1015.6793,443.28125 a 10.24721,10.24721 0 1 1 -20.49438,0 10.24721,10.24721 0 1 1 20.49438,0 z"
   sodipodi:ry="10.24721"
   sodipodi:rx="10.24721"
   sodipodi:cy="443.28125"
   sodipodi:cx="1005.4321"
   id="path4640"
   style="fill:none;stroke:#040305;stroke-width:2.60800719;stroke-linecap:round;stroke-linejoin:round;stroke-miterlimit:4;stroke-opacity:1;stroke-dasharray:none"
   sodipodi:type="arc" /><rect
   style="fill:none;stroke:#076bfa;stroke-width:1.20000005;stroke-linecap:round;stroke-linejoin:round;stroke-miterlimit:4;stroke-opacity:1;stroke-dasharray:none"
   id="rect4646"
   width="292.32285"
   height="239.17323"
   x="483.83572"
   y="389.14197" /><path
   transform="matrix(1.082347,0,0,-1.082347,-243.67379,1061.3619)"
   style="fill:none;stroke:#040705;stroke-width:1.10870194;stroke-linecap:round;stroke-linejoin:round;stroke-miterlimit:4;stroke-opacity:1"
   d="m 1178.5511,711.68121 c 0,4.66592 -3.7825,8.4484 -8.4484,8.4484 -4.666,0 -8.4484,-3.78248 -8.4484,-8.4484 0,-4.66592 3.7824,-8.44839 8.4484,-8.44839 4.6659,0 8.4484,3.78247 8.4484,8.44839 z"
   id="path4652" /><path
   sodipodi:nodetypes="csccsscscsccscccscccsssccccccccssccccccccssscccssscsccscscssccsscscccsssscccsccc"
   style="fill:none;stroke:#000000;stroke-width:0.99999994"
   inkscape:connector-curvature="0"
   id="path4662"
   d="m 784.87699,123.57383 c 0,1.91707 1.55325,3.47278 3.47156,3.47278 l 6.77164,0 0,46.79058 -6.77164,0 c -1.91831,0 -3.47156,1.55571 -3.47156,3.47279 l 0,11.28564 10.41714,0 c 11.68743,0 21.08785,1.84603 26.82071,4.0522 5.61036,2.1584 14.38114,3.76066 25.265,3.76066 1.19924,0 2.16943,0.9714 2.16943,2.16942 l 0,0 c 0,1.19925 -0.9714,2.16942 -2.16943,2.16942 -11.68744,0 -21.0903,-1.8448 -26.82193,-4.05097 -5.61037,-2.1584 -14.38115,-3.76188 -25.26255,-3.76188 l -10.41714,0.001 c -3.59652,0 -6.51194,2.91421 -6.51194,6.50949 0,3.59528 2.91665,6.50949 6.51194,6.50949 l 0,-3.9934 10.41714,0 0,4.86435 c 0,1.91708 1.55325,3.47157 3.47156,3.47157 l 1.737,0 c 0.44222,0 0.88811,-0.17028 1.22742,-0.50837 0.67741,-0.67863 1.77498,-0.67863 2.45484,0 0.67741,0.67864 1.77744,0.67864 2.45485,-0.001 0.67741,-0.67741 1.77742,-0.67741 2.45483,0.001 0.67741,0.67864 1.77744,0.67864 2.45484,-0.001 0.67986,-0.67741 1.77743,-0.67741 2.45484,0.001 0.67986,0.67864 1.77743,0.67864 2.45729,-0.001 0.67741,-0.67741 1.77499,-0.67741 2.45484,0.001 0.33687,0.33809 0.78276,0.50837 1.22742,0.50837 l 254.82551,0 c 0.4447,0 0.8906,-0.17028 1.2274,-0.50837 0.6799,-0.67863 1.7775,-0.67863 2.4549,-0.001 0.6798,0.67986 1.7774,0.67986 2.4573,0.001 0.6774,-0.67863 1.775,-0.67863 2.4536,-0.001 0.6774,0.67986 1.7774,0.67986 2.4548,0.001 0.6787,-0.67863 1.7787,-0.67863 2.4561,-0.001 0.6774,0.67986 1.7774,0.67986 2.4548,0.001 0.6799,-0.67863 1.7775,-0.67863 2.4549,0 0.3393,0.33809 0.7852,0.50837 1.2274,0.50837 l 1.737,0 c 1.9183,0 3.4716,-1.55449 3.4716,-3.47157 l 0,-4.86191 10.9377,0 0,3.9934 c 3.5965,0 6.5095,-2.91419 6.5095,-6.50948 0,-3.59529 -2.9142,-6.50949 -6.5095,-6.50949 l -10.9377,0 c -10.8815,0 -19.6522,1.60471 -25.2638,3.76188 -5.7329,2.20617 -15.1333,4.05097 -26.8207,4.05097 -1.1993,0 -2.1695,-0.9714 -2.1695,-2.16941 l 0,0 c 0,-1.19925 0.9714,-2.16942 2.1695,-2.16942 10.8814,0 19.6522,-1.6035 25.2625,-3.76067 5.7329,-2.20616 15.1399,-4.44475 26.8207,-4.05219 l 10.9378,0 0,-11.28565 c 0,-1.91708 -1.5557,-3.56935 -3.4716,-3.47279 l -7.2934,0 0,-46.79057 7.2934,0 c 1.9183,0 3.4716,-1.55572 3.4716,-3.47279 l 0,-15.62571 c 3.5965,0 6.5095,-2.91543 6.5095,-6.51071 0,-3.595289 -2.9142,-6.509499 -6.5095,-6.509499 l 0,3.9934 -10.939,0 0,-4.8619 c 0,-1.91585 -1.5533,-3.47156 -3.4716,-3.47156 l -297.58061,0 c -1.9183,0 -3.47156,1.55571 -3.47156,3.47156 l 0,4.8619 -10.41714,0 0,-3.9934 c -3.59652,0 -6.51194,2.91421 -6.51194,6.509499 0,3.59528 2.91665,6.51071 6.51194,6.51071 l 0,15.62326 z" /><path
   transform="scale(1,-1)"
   style="fill:none;stroke:#000000;stroke-width:0.99999994"
   d="m 865.60742,-109.68496 41.66857,0 0,10.76381 -41.66857,0 z"
   id="rect4664" /><path
   transform="scale(1,-1)"
   style="fill:none;stroke:#000000;stroke-width:0.99999994"
   d="m 988.87616,-109.68496 41.66854,0 0,10.76381 -41.66854,0 z"
   id="rect4666" /><path
   transform="scale(1,-1)"
   style="fill:none;stroke:#000000;stroke-width:0.99999994"
   d="m 865.60742,-202.33012 41.66857,0 0,10.76381 -41.66857,0 z"
   id="rect4668" /><path
   transform="scale(1,-1)"
   style="fill:none;stroke:#000000;stroke-width:0.99999994"
   d="m 988.87616,-202.33012 41.66854,0 0,10.76381 -41.66854,0 z"
   id="rect4670" /><path
   style="fill:none;stroke:#070707;stroke-width:1.20000005;stroke-linecap:round;stroke-linejoin:round;stroke-miterlimit:4;stroke-opacity:1"
   d="m 856.22668,147.76588 68.57953,0 0,16.97323 -68.57953,0 z"
   id="rect4674"
   inkscape:connector-curvature="0"
   sodipodi:nodetypes="ccccc" /><path
   transform="matrix(0.46012142,0,0,0.46012142,514.09607,-72.849054)"
   style="fill:none;stroke:#040305;stroke-width:2.60800719;stroke-linecap:round;stroke-linejoin:round;stroke-miterlimit:4;stroke-opacity:1"
   d="m 1015.6793,443.28125 c 0,5.65938 -4.5878,10.24721 -10.2472,10.24721 -5.65935,0 -10.24718,-4.58783 -10.24718,-10.24721 0,-5.65938 4.58783,-10.24721 10.24718,-10.24721 5.6594,0 10.2472,4.58783 10.2472,10.24721 z"
   id="path4738" /><path
   transform="matrix(0.46012142,0,0,0.46012142,530.70536,-72.849054)"
   style="fill:none;stroke:#040305;stroke-width:2.60800719;stroke-linecap:round;stroke-linejoin:round;stroke-miterlimit:4;stroke-opacity:1"
   d="m 1015.6793,443.28125 c 0,5.65938 -4.5878,10.24721 -10.2472,10.24721 -5.65935,0 -10.24718,-4.58783 -10.24718,-10.24721 0,-5.65938 4.58783,-10.24721 10.24718,-10.24721 5.6594,0 10.2472,4.58783 10.2472,10.24721 z"
   id="path4740" /><path
   transform="matrix(0.46012142,0,0,0.46012142,547.31478,-72.849054)"
   style="fill:none;stroke:#040305;stroke-width:2.60800719;stroke-linecap:round;stroke-linejoin:round;stroke-miterlimit:4;stroke-opacity:1"
   d="m 1015.6793,443.28125 c 0,5.65938 -4.5878,10.24721 -10.2472,10.24721 -5.65935,0 -10.24718,-4.58783 -10.24718,-10.24721 0,-5.65938 4.58783,-10.24721 10.24718,-10.24721 5.6594,0 10.2472,4.58783 10.2472,10.24721 z"
   id="path4742" /><path
   transform="matrix(0.46012142,0,0,0.46012142,563.92411,-72.849054)"
   style="fill:none;stroke:#040305;stroke-width:2.60800719;stroke-linecap:round;stroke-linejoin:round;stroke-miterlimit:4;stroke-opacity:1"
   d="m 1015.6793,443.28125 c 0,5.65938 -4.5878,10.24721 -10.2472,10.24721 -5.65935,0 -10.24718,-4.58783 -10.24718,-10.24721 0,-5.65938 4.58783,-10.24721 10.24718,-10.24721 5.6594,0 10.2472,4.58783 10.2472,10.24721 z"
   id="path4744" /><path
   transform="matrix(0.46012142,0,0,0.46012142,580.53339,-72.849054)"
   style="fill:none;stroke:#040305;stroke-width:2.60800719;stroke-linecap:round;stroke-linejoin:round;stroke-miterlimit:4;stroke-opacity:1"
   d="m 1015.6793,443.28125 c 0,5.65938 -4.5878,10.24721 -10.2472,10.24721 -5.65935,0 -10.24718,-4.58783 -10.24718,-10.24721 0,-5.65938 4.58783,-10.24721 10.24718,-10.24721 5.6594,0 10.2472,4.58783 10.2472,10.24721 z"
   id="path4746" /><path
   transform="matrix(0.46012142,0,0,0.46012142,522.70831,-59.623109)"
   style="fill:none;stroke:#040305;stroke-width:2.60800719;stroke-linecap:round;stroke-linejoin:round;stroke-miterlimit:4;stroke-opacity:1"
   d="m 1015.6793,443.28125 c 0,5.65938 -4.5878,10.24721 -10.2472,10.24721 -5.65935,0 -10.24718,-4.58783 -10.24718,-10.24721 0,-5.65938 4.58783,-10.24721 10.24718,-10.24721 5.6594,0 10.2472,4.58783 10.2472,10.24721 z"
   id="path4748" /><path
   transform="matrix(0.46012142,0,0,0.46012142,539.3176,-59.623109)"
   style="fill:none;stroke:#040305;stroke-width:2.60800719;stroke-linecap:round;stroke-linejoin:round;stroke-miterlimit:4;stroke-opacity:1"
   d="m 1015.6793,443.28125 c 0,5.65938 -4.5878,10.24721 -10.2472,10.24721 -5.65935,0 -10.24718,-4.58783 -10.24718,-10.24721 0,-5.65938 4.58783,-10.24721 10.24718,-10.24721 5.6594,0 10.2472,4.58783 10.2472,10.24721 z"
   id="path4750" /><path
   transform="matrix(0.46012142,0,0,0.46012142,555.92702,-59.623109)"
   style="fill:none;stroke:#040305;stroke-width:2.60800719;stroke-linecap:round;stroke-linejoin:round;stroke-miterlimit:4;stroke-opacity:1"
   d="m 1015.6793,443.28125 c 0,5.65938 -4.5878,10.24721 -10.2472,10.24721 -5.65935,0 -10.24718,-4.58783 -10.24718,-10.24721 0,-5.65938 4.58783,-10.24721 10.24718,-10.24721 5.6594,0 10.2472,4.58783 10.2472,10.24721 z"
   id="path4752" /><path
   transform="matrix(0.46012142,0,0,0.46012142,572.53635,-59.623109)"
   style="fill:none;stroke:#040305;stroke-width:2.60800719;stroke-linecap:round;stroke-linejoin:round;stroke-miterlimit:4;stroke-opacity:1"
   d="m 1015.6793,443.28125 c 0,5.65938 -4.5878,10.24721 -10.2472,10.24721 -5.65935,0 -10.24718,-4.58783 -10.24718,-10.24721 0,-5.65938 4.58783,-10.24721 10.24718,-10.24721 5.6594,0 10.2472,4.58783 10.2472,10.24721 z"
   id="path4754" /><path
   transform="matrix(0.46012142,0,0,0.46012142,589.14563,-59.623109)"
   style="fill:none;stroke:#040305;stroke-width:2.60800719;stroke-linecap:round;stroke-linejoin:round;stroke-miterlimit:4;stroke-opacity:1"
   d="m 1015.6793,443.28125 c 0,5.65938 -4.5878,10.24721 -10.2472,10.24721 -5.65935,0 -10.24718,-4.58783 -10.24718,-10.24721 0,-5.65938 4.58783,-10.24721 10.24718,-10.24721 5.6594,0 10.2472,4.58783 10.2472,10.24721 z"
   id="path4756" /><path
   transform="matrix(0.46012142,0,0,0.46012142,514.40365,-47.012324)"
   style="fill:none;stroke:#040305;stroke-width:2.60800719;stroke-linecap:round;stroke-linejoin:round;stroke-miterlimit:4;stroke-opacity:1"
   d="m 1015.6793,443.28125 c 0,5.65938 -4.5878,10.24721 -10.2472,10.24721 -5.65935,0 -10.24718,-4.58783 -10.24718,-10.24721 0,-5.65938 4.58783,-10.24721 10.24718,-10.24721 5.6594,0 10.2472,4.58783 10.2472,10.24721 z"
   id="path4758" /><path
   transform="matrix(0.46012142,0,0,0.46012142,531.01294,-47.012324)"
   style="fill:none;stroke:#040305;stroke-width:2.60800719;stroke-linecap:round;stroke-linejoin:round;stroke-miterlimit:4;stroke-opacity:1"
   d="m 1015.6793,443.28125 c 0,5.65938 -4.5878,10.24721 -10.2472,10.24721 -5.65935,0 -10.24718,-4.58783 -10.24718,-10.24721 0,-5.65938 4.58783,-10.24721 10.24718,-10.24721 5.6594,0 10.2472,4.58783 10.2472,10.24721 z"
   id="path4760" /><path
   transform="matrix(0.46012142,0,0,0.46012142,547.62236,-47.012324)"
   style="fill:none;stroke:#040305;stroke-width:2.60800719;stroke-linecap:round;stroke-linejoin:round;stroke-miterlimit:4;stroke-opacity:1"
   d="m 1015.6793,443.28125 c 0,5.65938 -4.5878,10.24721 -10.2472,10.24721 -5.65935,0 -10.24718,-4.58783 -10.24718,-10.24721 0,-5.65938 4.58783,-10.24721 10.24718,-10.24721 5.6594,0 10.2472,4.58783 10.2472,10.24721 z"
   id="path4762" /><path
   transform="matrix(0.46012142,0,0,0.46012142,564.23169,-47.012324)"
   style="fill:none;stroke:#040305;stroke-width:2.60800719;stroke-linecap:round;stroke-linejoin:round;stroke-miterlimit:4;stroke-opacity:1"
   d="m 1015.6793,443.28125 c 0,5.65938 -4.5878,10.24721 -10.2472,10.24721 -5.65935,0 -10.24718,-4.58783 -10.24718,-10.24721 0,-5.65938 4.58783,-10.24721 10.24718,-10.24721 5.6594,0 10.2472,4.58783 10.2472,10.24721 z"
   id="path4764" /><path
   transform="matrix(0.46012142,0,0,0.46012142,580.84097,-47.012324)"
   style="fill:none;stroke:#040305;stroke-width:2.60800719;stroke-linecap:round;stroke-linejoin:round;stroke-miterlimit:4;stroke-opacity:1"
   d="m 1015.6793,443.28125 c 0,5.65938 -4.5878,10.24721 -10.2472,10.24721 -5.65935,0 -10.24718,-4.58783 -10.24718,-10.24721 0,-5.65938 4.58783,-10.24721 10.24718,-10.24721 5.6594,0 10.2472,4.58783 10.2472,10.24721 z"
   id="path4766" /><path
   transform="matrix(0.46012142,0,0,0.46012142,523.01589,-34.709119)"
   style="fill:none;stroke:#040305;stroke-width:2.60800719;stroke-linecap:round;stroke-linejoin:round;stroke-miterlimit:4;stroke-opacity:1"
   d="m 1015.6793,443.28125 c 0,5.65938 -4.5878,10.24721 -10.2472,10.24721 -5.65935,0 -10.24718,-4.58783 -10.24718,-10.24721 0,-5.65938 4.58783,-10.24721 10.24718,-10.24721 5.6594,0 10.2472,4.58783 10.2472,10.24721 z"
   id="path4768" /><path
   transform="matrix(0.46012142,0,0,0.46012142,539.62518,-34.709119)"
   style="fill:none;stroke:#040305;stroke-width:2.60800719;stroke-linecap:round;stroke-linejoin:round;stroke-miterlimit:4;stroke-opacity:1"
   d="m 1015.6793,443.28125 c 0,5.65938 -4.5878,10.24721 -10.2472,10.24721 -5.65935,0 -10.24718,-4.58783 -10.24718,-10.24721 0,-5.65938 4.58783,-10.24721 10.24718,-10.24721 5.6594,0 10.2472,4.58783 10.2472,10.24721 z"
   id="path4770" /><path
   transform="matrix(0.46012142,0,0,0.46012142,556.2346,-34.709119)"
   style="fill:none;stroke:#040305;stroke-width:2.60800719;stroke-linecap:round;stroke-linejoin:round;stroke-miterlimit:4;stroke-opacity:1"
   d="m 1015.6793,443.28125 c 0,5.65938 -4.5878,10.24721 -10.2472,10.24721 -5.65935,0 -10.24718,-4.58783 -10.24718,-10.24721 0,-5.65938 4.58783,-10.24721 10.24718,-10.24721 5.6594,0 10.2472,4.58783 10.2472,10.24721 z"
   id="path4772" /><path
   transform="matrix(0.46012142,0,0,0.46012142,572.84393,-34.709119)"
   style="fill:none;stroke:#040305;stroke-width:2.60800719;stroke-linecap:round;stroke-linejoin:round;stroke-miterlimit:4;stroke-opacity:1"
   d="m 1015.6793,443.28125 c 0,5.65938 -4.5878,10.24721 -10.2472,10.24721 -5.65935,0 -10.24718,-4.58783 -10.24718,-10.24721 0,-5.65938 4.58783,-10.24721 10.24718,-10.24721 5.6594,0 10.2472,4.58783 10.2472,10.24721 z"
   id="path4774" /><path
   transform="matrix(0.46012142,0,0,0.46012142,589.45321,-34.709119)"
   style="fill:none;stroke:#040305;stroke-width:2.60800719;stroke-linecap:round;stroke-linejoin:round;stroke-miterlimit:4;stroke-opacity:1"
   d="m 1015.6793,443.28125 c 0,5.65938 -4.5878,10.24721 -10.2472,10.24721 -5.65935,0 -10.24718,-4.58783 -10.24718,-10.24721 0,-5.65938 4.58783,-10.24721 10.24718,-10.24721 5.6594,0 10.2472,4.58783 10.2472,10.24721 z"
   id="path4776" /><path
   transform="matrix(-0.46012142,0,0,0.46012142,1382.4355,64.946842)"
   style="fill:none;stroke:#040305;stroke-width:2.60800719;stroke-linecap:round;stroke-linejoin:round;stroke-miterlimit:4;stroke-opacity:1"
   d="m 1015.6793,443.28125 c 0,5.65938 -4.5878,10.24721 -10.2472,10.24721 -5.65935,0 -10.24718,-4.58783 -10.24718,-10.24721 0,-5.65938 4.58783,-10.24721 10.24718,-10.24721 5.6594,0 10.2472,4.58783 10.2472,10.24721 z"
   id="path4778" /><path
   transform="matrix(-0.46012142,0,0,0.46012142,1365.8262,64.946842)"
   style="fill:none;stroke:#040305;stroke-width:2.60800719;stroke-linecap:round;stroke-linejoin:round;stroke-miterlimit:4;stroke-opacity:1"
   d="m 1015.6793,443.28125 c 0,5.65938 -4.5878,10.24721 -10.2472,10.24721 -5.65935,0 -10.24718,-4.58783 -10.24718,-10.24721 0,-5.65938 4.58783,-10.24721 10.24718,-10.24721 5.6594,0 10.2472,4.58783 10.2472,10.24721 z"
   id="path4780" /><path
   transform="matrix(-0.46012142,0,0,0.46012142,1349.2168,64.946842)"
   style="fill:none;stroke:#040305;stroke-width:2.60800719;stroke-linecap:round;stroke-linejoin:round;stroke-miterlimit:4;stroke-opacity:1"
   d="m 1015.6793,443.28125 c 0,5.65938 -4.5878,10.24721 -10.2472,10.24721 -5.65935,0 -10.24718,-4.58783 -10.24718,-10.24721 0,-5.65938 4.58783,-10.24721 10.24718,-10.24721 5.6594,0 10.2472,4.58783 10.2472,10.24721 z"
   id="path4782" /><path
   transform="matrix(-0.46012142,0,0,0.46012142,1332.6075,64.946842)"
   style="fill:none;stroke:#040305;stroke-width:2.60800719;stroke-linecap:round;stroke-linejoin:round;stroke-miterlimit:4;stroke-opacity:1"
   d="m 1015.6793,443.28125 c 0,5.65938 -4.5878,10.24721 -10.2472,10.24721 -5.65935,0 -10.24718,-4.58783 -10.24718,-10.24721 0,-5.65938 4.58783,-10.24721 10.24718,-10.24721 5.6594,0 10.2472,4.58783 10.2472,10.24721 z"
   id="path4784" /><path
   transform="matrix(-0.46012142,0,0,0.46012142,1315.9982,64.946842)"
   style="fill:none;stroke:#040305;stroke-width:2.60800719;stroke-linecap:round;stroke-linejoin:round;stroke-miterlimit:4;stroke-opacity:1"
   d="m 1015.6793,443.28125 c 0,5.65938 -4.5878,10.24721 -10.2472,10.24721 -5.65935,0 -10.24718,-4.58783 -10.24718,-10.24721 0,-5.65938 4.58783,-10.24721 10.24718,-10.24721 5.6594,0 10.2472,4.58783 10.2472,10.24721 z"
   id="path4786" /><path
   transform="matrix(-0.46012142,0,0,0.46012142,1373.8233,78.172787)"
   style="fill:none;stroke:#040305;stroke-width:2.60800719;stroke-linecap:round;stroke-linejoin:round;stroke-miterlimit:4;stroke-opacity:1"
   d="m 1015.6793,443.28125 c 0,5.65938 -4.5878,10.24721 -10.2472,10.24721 -5.65935,0 -10.24718,-4.58783 -10.24718,-10.24721 0,-5.65938 4.58783,-10.24721 10.24718,-10.24721 5.6594,0 10.2472,4.58783 10.2472,10.24721 z"
   id="path4788" /><path
   transform="matrix(-0.46012142,0,0,0.46012142,1357.214,78.172787)"
   style="fill:none;stroke:#040305;stroke-width:2.60800719;stroke-linecap:round;stroke-linejoin:round;stroke-miterlimit:4;stroke-opacity:1"
   d="m 1015.6793,443.28125 c 0,5.65938 -4.5878,10.24721 -10.2472,10.24721 -5.65935,0 -10.24718,-4.58783 -10.24718,-10.24721 0,-5.65938 4.58783,-10.24721 10.24718,-10.24721 5.6594,0 10.2472,4.58783 10.2472,10.24721 z"
   id="path4790" /><path
   transform="matrix(-0.46012142,0,0,0.46012142,1340.6046,78.172787)"
   style="fill:none;stroke:#040305;stroke-width:2.60800719;stroke-linecap:round;stroke-linejoin:round;stroke-miterlimit:4;stroke-opacity:1"
   d="m 1015.6793,443.28125 c 0,5.65938 -4.5878,10.24721 -10.2472,10.24721 -5.65935,0 -10.24718,-4.58783 -10.24718,-10.24721 0,-5.65938 4.58783,-10.24721 10.24718,-10.24721 5.6594,0 10.2472,4.58783 10.2472,10.24721 z"
   id="path4792" /><path
   transform="matrix(-0.46012142,0,0,0.46012142,1323.9952,78.172787)"
   style="fill:none;stroke:#040305;stroke-width:2.60800719;stroke-linecap:round;stroke-linejoin:round;stroke-miterlimit:4;stroke-opacity:1"
   d="m 1015.6793,443.28125 c 0,5.65938 -4.5878,10.24721 -10.2472,10.24721 -5.65935,0 -10.24718,-4.58783 -10.24718,-10.24721 0,-5.65938 4.58783,-10.24721 10.24718,-10.24721 5.6594,0 10.2472,4.58783 10.2472,10.24721 z"
   id="path4794" /><path
   transform="matrix(-0.46012142,0,0,0.46012142,1307.386,78.172787)"
   style="fill:none;stroke:#040305;stroke-width:2.60800719;stroke-linecap:round;stroke-linejoin:round;stroke-miterlimit:4;stroke-opacity:1"
   d="m 1015.6793,443.28125 c 0,5.65938 -4.5878,10.24721 -10.2472,10.24721 -5.65935,0 -10.24718,-4.58783 -10.24718,-10.24721 0,-5.65938 4.58783,-10.24721 10.24718,-10.24721 5.6594,0 10.2472,4.58783 10.2472,10.24721 z"
   id="path4796" /><path
   transform="matrix(-0.46012142,0,0,0.46012142,1382.1279,90.783572)"
   style="fill:none;stroke:#040305;stroke-width:2.60800719;stroke-linecap:round;stroke-linejoin:round;stroke-miterlimit:4;stroke-opacity:1"
   d="m 1015.6793,443.28125 c 0,5.65938 -4.5878,10.24721 -10.2472,10.24721 -5.65935,0 -10.24718,-4.58783 -10.24718,-10.24721 0,-5.65938 4.58783,-10.24721 10.24718,-10.24721 5.6594,0 10.2472,4.58783 10.2472,10.24721 z"
   id="path4798" /><path
   transform="matrix(-0.46012142,0,0,0.46012142,1365.5187,90.783572)"
   style="fill:none;stroke:#040305;stroke-width:2.60800719;stroke-linecap:round;stroke-linejoin:round;stroke-miterlimit:4;stroke-opacity:1"
   d="m 1015.6793,443.28125 c 0,5.65938 -4.5878,10.24721 -10.2472,10.24721 -5.65935,0 -10.24718,-4.58783 -10.24718,-10.24721 0,-5.65938 4.58783,-10.24721 10.24718,-10.24721 5.6594,0 10.2472,4.58783 10.2472,10.24721 z"
   id="path4800" /><path
   transform="matrix(-0.46012142,0,0,0.46012142,1348.9092,90.783572)"
   style="fill:none;stroke:#040305;stroke-width:2.60800719;stroke-linecap:round;stroke-linejoin:round;stroke-miterlimit:4;stroke-opacity:1"
   d="m 1015.6793,443.28125 c 0,5.65938 -4.5878,10.24721 -10.2472,10.24721 -5.65935,0 -10.24718,-4.58783 -10.24718,-10.24721 0,-5.65938 4.58783,-10.24721 10.24718,-10.24721 5.6594,0 10.2472,4.58783 10.2472,10.24721 z"
   id="path4802" /><path
   transform="matrix(-0.46012142,0,0,0.46012142,1332.2999,90.783572)"
   style="fill:none;stroke:#040305;stroke-width:2.60800719;stroke-linecap:round;stroke-linejoin:round;stroke-miterlimit:4;stroke-opacity:1"
   d="m 1015.6793,443.28125 c 0,5.65938 -4.5878,10.24721 -10.2472,10.24721 -5.65935,0 -10.24718,-4.58783 -10.24718,-10.24721 0,-5.65938 4.58783,-10.24721 10.24718,-10.24721 5.6594,0 10.2472,4.58783 10.2472,10.24721 z"
   id="path4804" /><path
   transform="matrix(-0.46012142,0,0,0.46012142,1315.6906,90.783572)"
   style="fill:none;stroke:#040305;stroke-width:2.60800719;stroke-linecap:round;stroke-linejoin:round;stroke-miterlimit:4;stroke-opacity:1"
   d="m 1015.6793,443.28125 c 0,5.65938 -4.5878,10.24721 -10.2472,10.24721 -5.65935,0 -10.24718,-4.58783 -10.24718,-10.24721 0,-5.65938 4.58783,-10.24721 10.24718,-10.24721 5.6594,0 10.2472,4.58783 10.2472,10.24721 z"
   id="path4806" /><path
   transform="matrix(-0.46012142,0,0,0.46012142,1373.5157,103.08678)"
   style="fill:none;stroke:#040305;stroke-width:2.60800719;stroke-linecap:round;stroke-linejoin:round;stroke-miterlimit:4;stroke-opacity:1"
   d="m 1015.6793,443.28125 c 0,5.65938 -4.5878,10.24721 -10.2472,10.24721 -5.65935,0 -10.24718,-4.58783 -10.24718,-10.24721 0,-5.65938 4.58783,-10.24721 10.24718,-10.24721 5.6594,0 10.2472,4.58783 10.2472,10.24721 z"
   id="path4808" /><path
   transform="matrix(-0.46012142,0,0,0.46012142,1356.9064,103.08678)"
   style="fill:none;stroke:#040305;stroke-width:2.60800719;stroke-linecap:round;stroke-linejoin:round;stroke-miterlimit:4;stroke-opacity:1"
   d="m 1015.6793,443.28125 c 0,5.65938 -4.5878,10.24721 -10.2472,10.24721 -5.65935,0 -10.24718,-4.58783 -10.24718,-10.24721 0,-5.65938 4.58783,-10.24721 10.24718,-10.24721 5.6594,0 10.2472,4.58783 10.2472,10.24721 z"
   id="path4810" /><path
   transform="matrix(-0.46012142,0,0,0.46012142,1340.297,103.08678)"
   style="fill:none;stroke:#040305;stroke-width:2.60800719;stroke-linecap:round;stroke-linejoin:round;stroke-miterlimit:4;stroke-opacity:1"
   d="m 1015.6793,443.28125 c 0,5.65938 -4.5878,10.24721 -10.2472,10.24721 -5.65935,0 -10.24718,-4.58783 -10.24718,-10.24721 0,-5.65938 4.58783,-10.24721 10.24718,-10.24721 5.6594,0 10.2472,4.58783 10.2472,10.24721 z"
   id="path4812" /><path
   transform="matrix(-0.46012142,0,0,0.46012142,1323.6877,103.08678)"
   style="fill:none;stroke:#040305;stroke-width:2.60800719;stroke-linecap:round;stroke-linejoin:round;stroke-miterlimit:4;stroke-opacity:1"
   d="m 1015.6793,443.28125 c 0,5.65938 -4.5878,10.24721 -10.2472,10.24721 -5.65935,0 -10.24718,-4.58783 -10.24718,-10.24721 0,-5.65938 4.58783,-10.24721 10.24718,-10.24721 5.6594,0 10.2472,4.58783 10.2472,10.24721 z"
   id="path4814" /><path
   transform="matrix(-0.46012142,0,0,0.46012142,1307.0784,103.08678)"
   style="fill:none;stroke:#040305;stroke-width:2.60800719;stroke-linecap:round;stroke-linejoin:round;stroke-miterlimit:4;stroke-opacity:1"
   d="m 1015.6793,443.28125 c 0,5.65938 -4.5878,10.24721 -10.2472,10.24721 -5.65935,0 -10.24718,-4.58783 -10.24718,-10.24721 0,-5.65938 4.58783,-10.24721 10.24718,-10.24721 5.6594,0 10.2472,4.58783 10.2472,10.24721 z"
   id="path4816" /></svg>